<?xml version="1.0" encoding="utf-8" standalone="no"?>
<!DOCTYPE svg PUBLIC "-//W3C//DTD SVG 1.1//EN"
  "http://www.w3.org/Graphics/SVG/1.1/DTD/svg11.dtd">
<svg height="576pt" version="1.1" viewBox="0 0 864 576" width="864pt" xmlns="http://www.w3.org/2000/svg" xmlns:xlink="http://www.w3.org/1999/xlink">
 <metadata>
  <rdf:RDF xmlns:cc="http://creativecommons.org/ns#" xmlns:dc="http://purl.org/dc/elements/1.1/" xmlns:rdf="http://www.w3.org/1999/02/22-rdf-syntax-ns#">
   <cc:Work>
    <dc:type rdf:resource="http://purl.org/dc/dcmitype/StillImage"/>
    <dc:format>image/svg+xml</dc:format>
    <dc:creator>
     <cc:Agent>
      <dc:title>Matplotlib v3.4.2, https://matplotlib.org/</dc:title>
     </cc:Agent>
    </dc:creator>
   </cc:Work>
  </rdf:RDF>
 </metadata>
 <defs>
  <style type="text/css">*{stroke-linecap:butt;stroke-linejoin:round;}</style>
 </defs>
 <g id="figure_1">
  <g id="patch_1">
   <path d="M 0 576 
L 864 576 
L 864 0 
L 0 0 
z
" style="fill:#ffffff;"/>
  </g>
  <g id="axes_1">
   <g id="patch_2">
    <path d="M 108 512.64 
L 777.6 512.64 
L 777.6 69.12 
L 108 69.12 
z
" style="fill:#ffffff;"/>
   </g>
   <g id="patch_3">
    <path clip-path="url(#p141ddc8b45)" d="M 160.2288 428.260148 
L 162.262757 426.526621 
L 162.23653 428.457139 
L 173.621335 429.797943 
L 173.620265 429.876739 
L 162.23546 428.535936 
L 162.209232 430.466454 
z
" style="stroke:#000000;stroke-linejoin:miter;"/>
   </g>
   <g id="patch_4">
    <path clip-path="url(#p141ddc8b45)" d="M 140.1408 196.610343 
L 142.24191 195.83706 
L 142.113217 197.731602 
L 153.535426 204.457646 
L 153.530174 204.534974 
L 142.107964 197.808931 
L 141.979271 199.703473 
z
" style="stroke:#000000;stroke-linejoin:miter;"/>
   </g>
   <g id="patch_5">
    <path clip-path="url(#p141ddc8b45)" d="M 407.9808 168.687701 
L 412.074113 165.490266 
L 412.003107 168.835275 
L 429.420531 172.040389 
L 429.395469 173.220981 
L 411.978045 170.015867 
L 411.907039 173.360876 
z
" style="stroke:#000000;stroke-linejoin:miter;"/>
   </g>
   <g id="patch_6">
    <path clip-path="url(#p141ddc8b45)" d="M 496.368 465.324195 
L 494.26689 466.097478 
L 494.395583 464.202935 
L 482.973374 457.476892 
L 482.978626 457.399563 
L 494.400836 464.125607 
L 494.529529 462.231064 
z
" style="stroke:#000000;stroke-linejoin:miter;"/>
   </g>
   <g id="matplotlib.axis_1">
    <g id="xtick_1">
     <g id="line2d_1">
      <defs>
       <path d="M 0 0 
L 0 3.5 
" id="m4abed1d830" style="stroke:#000000;stroke-width:0.8;"/>
      </defs>
      <g>
       <use style="stroke:#000000;stroke-width:0.8;" x="108" xlink:href="#m4abed1d830" y="512.64"/>
      </g>
     </g>
     <g id="line2d_2">
      <defs>
       <path d="M 0 0 
L 0 -3.5 
" id="mda35cc5777" style="stroke:#000000;stroke-width:0.8;"/>
      </defs>
      <g>
       <use style="stroke:#000000;stroke-width:0.8;" x="108" xlink:href="#mda35cc5777" y="69.12"/>
      </g>
     </g>
    </g>
    <g id="xtick_2">
     <g id="line2d_3">
      <g>
       <use style="stroke:#000000;stroke-width:0.8;" x="241.92" xlink:href="#m4abed1d830" y="512.64"/>
      </g>
     </g>
     <g id="line2d_4">
      <g>
       <use style="stroke:#000000;stroke-width:0.8;" x="241.92" xlink:href="#mda35cc5777" y="69.12"/>
      </g>
     </g>
    </g>
    <g id="xtick_3">
     <g id="line2d_5">
      <g>
       <use style="stroke:#000000;stroke-width:0.8;" x="375.84" xlink:href="#m4abed1d830" y="512.64"/>
      </g>
     </g>
     <g id="line2d_6">
      <g>
       <use style="stroke:#000000;stroke-width:0.8;" x="375.84" xlink:href="#mda35cc5777" y="69.12"/>
      </g>
     </g>
    </g>
    <g id="xtick_4">
     <g id="line2d_7">
      <g>
       <use style="stroke:#000000;stroke-width:0.8;" x="509.76" xlink:href="#m4abed1d830" y="512.64"/>
      </g>
     </g>
     <g id="line2d_8">
      <g>
       <use style="stroke:#000000;stroke-width:0.8;" x="509.76" xlink:href="#mda35cc5777" y="69.12"/>
      </g>
     </g>
    </g>
    <g id="xtick_5">
     <g id="line2d_9">
      <g>
       <use style="stroke:#000000;stroke-width:0.8;" x="643.68" xlink:href="#m4abed1d830" y="512.64"/>
      </g>
     </g>
     <g id="line2d_10">
      <g>
       <use style="stroke:#000000;stroke-width:0.8;" x="643.68" xlink:href="#mda35cc5777" y="69.12"/>
      </g>
     </g>
    </g>
    <g id="xtick_6">
     <g id="line2d_11">
      <g>
       <use style="stroke:#000000;stroke-width:0.8;" x="777.6" xlink:href="#m4abed1d830" y="512.64"/>
      </g>
     </g>
     <g id="line2d_12">
      <g>
       <use style="stroke:#000000;stroke-width:0.8;" x="777.6" xlink:href="#mda35cc5777" y="69.12"/>
      </g>
     </g>
    </g>
   </g>
   <g id="matplotlib.axis_2">
    <g id="ytick_1">
     <g id="line2d_13">
      <defs>
       <path d="M 0 0 
L -3.5 0 
" id="me91a084207" style="stroke:#000000;stroke-width:0.8;"/>
      </defs>
      <g>
       <use style="stroke:#000000;stroke-width:0.8;" x="108" xlink:href="#me91a084207" y="512.64"/>
      </g>
     </g>
     <g id="line2d_14">
      <defs>
       <path d="M 0 0 
L 3.5 0 
" id="m3e6d8e8324" style="stroke:#000000;stroke-width:0.8;"/>
      </defs>
      <g>
       <use style="stroke:#000000;stroke-width:0.8;" x="777.6" xlink:href="#m3e6d8e8324" y="512.64"/>
      </g>
     </g>
    </g>
    <g id="ytick_2">
     <g id="line2d_15">
      <g>
       <use style="stroke:#000000;stroke-width:0.8;" x="108" xlink:href="#me91a084207" y="433.780325"/>
      </g>
     </g>
     <g id="line2d_16">
      <g>
       <use style="stroke:#000000;stroke-width:0.8;" x="777.6" xlink:href="#m3e6d8e8324" y="433.780325"/>
      </g>
     </g>
    </g>
    <g id="ytick_3">
     <g id="line2d_17">
      <g>
       <use style="stroke:#000000;stroke-width:0.8;" x="108" xlink:href="#me91a084207" y="354.92065"/>
      </g>
     </g>
     <g id="line2d_18">
      <g>
       <use style="stroke:#000000;stroke-width:0.8;" x="777.6" xlink:href="#m3e6d8e8324" y="354.92065"/>
      </g>
     </g>
    </g>
    <g id="ytick_4">
     <g id="line2d_19">
      <g>
       <use style="stroke:#000000;stroke-width:0.8;" x="108" xlink:href="#me91a084207" y="276.060975"/>
      </g>
     </g>
     <g id="line2d_20">
      <g>
       <use style="stroke:#000000;stroke-width:0.8;" x="777.6" xlink:href="#m3e6d8e8324" y="276.060975"/>
      </g>
     </g>
    </g>
    <g id="ytick_5">
     <g id="line2d_21">
      <g>
       <use style="stroke:#000000;stroke-width:0.8;" x="108" xlink:href="#me91a084207" y="197.2013"/>
      </g>
     </g>
     <g id="line2d_22">
      <g>
       <use style="stroke:#000000;stroke-width:0.8;" x="777.6" xlink:href="#m3e6d8e8324" y="197.2013"/>
      </g>
     </g>
    </g>
    <g id="ytick_6">
     <g id="line2d_23">
      <g>
       <use style="stroke:#000000;stroke-width:0.8;" x="108" xlink:href="#me91a084207" y="118.341624"/>
      </g>
     </g>
     <g id="line2d_24">
      <g>
       <use style="stroke:#000000;stroke-width:0.8;" x="777.6" xlink:href="#m3e6d8e8324" y="118.341624"/>
      </g>
     </g>
    </g>
   </g>
   <g id="line2d_25">
    <path clip-path="url(#p141ddc8b45)" d="M 108 512.64 
L 120.064865 479.830013 
L 125.427027 465.87921 
L 128.778378 457.712403 
L 131.459459 451.740873 
L 133.47027 447.738771 
L 135.481081 444.232938 
L 137.491892 441.237258 
L 139.502703 438.698052 
L 141.513514 436.528578 
L 143.524324 434.645186 
L 146.205405 432.466278 
L 148.886486 430.567704 
L 152.237838 428.47978 
L 156.259459 426.277853 
L 160.951351 424.012731 
L 165.643243 421.991502 
L 171.675676 419.658757 
L 178.378378 417.321593 
L 186.421622 414.767563 
L 195.805405 412.033895 
L 206.52973 409.143177 
L 219.264865 405.945789 
L 234.010811 402.478046 
L 251.437838 398.619672 
L 271.545946 394.408176 
L 294.335135 389.869238 
L 320.475676 384.895132 
L 350.637838 379.391619 
L 384.821622 373.389396 
L 423.027027 366.910079 
L 467.264865 359.643455 
L 516.864865 351.73192 
L 571.156757 343.296809 
L 632.151351 334.039245 
L 709.902703 322.479301 
L 777.6 312.519738 
L 777.6 312.519738 
" style="fill:none;stroke:#000000;stroke-linecap:square;stroke-width:1.5;"/>
   </g>
   <g id="line2d_26">
    <path clip-path="url(#p141ddc8b45)" d="M 108 193.98375 
L 229.267578 179.976448 
L 229.267578 179.976448 
" style="fill:none;stroke:#000000;stroke-dasharray:5.55,2.4;stroke-dashoffset:0;stroke-width:1.5;"/>
   </g>
   <g id="line2d_27">
    <path clip-path="url(#p141ddc8b45)" d="M 229.267578 179.976448 
L 777.6 116.64 
L 777.6 116.64 
" style="fill:none;stroke:#000000;stroke-linecap:square;stroke-width:2.5;"/>
   </g>
   <g id="line2d_28">
    <path clip-path="url(#p141ddc8b45)" d="M 108 512.64 
L 229.267578 179.85044 
L 229.267578 179.85044 
" style="fill:none;stroke:#000000;stroke-linecap:square;stroke-width:2.5;"/>
   </g>
   <g id="line2d_29">
    <path clip-path="url(#p141ddc8b45)" d="M 229.267578 179.85044 
L 295.168968 -1 
L 295.168968 -1 
" style="fill:none;stroke:#000000;stroke-dasharray:5.55,2.4;stroke-dashoffset:0;stroke-width:1.5;"/>
   </g>
   <g id="line2d_30">
    <path clip-path="url(#p141ddc8b45)" d="M 108 512.64 
L 229.267578 498.632698 
L 229.267578 498.632698 
" style="fill:none;stroke:#000000;stroke-linecap:square;stroke-width:2.5;"/>
   </g>
   <g id="line2d_31">
    <path clip-path="url(#p141ddc8b45)" d="M 229.267578 498.632698 
L 777.6 435.29625 
L 777.6 435.29625 
" style="fill:none;stroke:#000000;stroke-linecap:square;stroke-width:2.5;"/>
   </g>
   <g id="patch_7">
    <path d="M 108 512.64 
L 108 69.12 
" style="fill:none;stroke:#000000;stroke-linecap:square;stroke-linejoin:miter;stroke-width:0.8;"/>
   </g>
   <g id="patch_8">
    <path d="M 777.6 512.64 
L 777.6 69.12 
" style="fill:none;stroke:#000000;stroke-linecap:square;stroke-linejoin:miter;stroke-width:0.8;"/>
   </g>
   <g id="patch_9">
    <path d="M 108 512.64 
L 777.6 512.64 
" style="fill:none;stroke:#000000;stroke-linecap:square;stroke-linejoin:miter;stroke-width:0.8;"/>
   </g>
   <g id="patch_10">
    <path d="M 108 69.12 
L 777.6 69.12 
" style="fill:none;stroke:#000000;stroke-linecap:square;stroke-linejoin:miter;stroke-width:0.8;"/>
   </g>
   <g id="text_1">
    <!-- $c$ -->
    <g transform="translate(108 65.177016)scale(0.22 -0.22)">
     <defs>
      <path d="M 2502 2431 
C 2381 2431 2323 2431 2234 2355 
C 2195 2323 2125 2227 2125 2125 
C 2125 1997 2221 1920 2342 1920 
C 2496 1920 2669 2044 2669 2292 
C 2669 2588 2374 2816 1933 2816 
C 1094 2816 256 1903 256 996 
C 256 441 602 -64 1254 -64 
C 2125 -64 2675 622 2675 706 
C 2675 744 2637 776 2611 776 
C 2592 776 2586 770 2528 713 
C 2118 162 1510 64 1267 64 
C 826 64 685 446 685 764 
C 685 988 794 1605 1024 2039 
C 1190 2338 1536 2682 1939 2682 
C 2022 2682 2374 2682 2502 2431 
z
" id="CMMI12-63" transform="scale(0.015625)"/>
     </defs>
     <use transform="scale(0.996264)" xlink:href="#CMMI12-63"/>
    </g>
   </g>
   <g id="text_2">
    <!-- $m$ -->
    <g transform="translate(780.2784 512.64)scale(0.22 -0.22)">
     <defs>
      <path d="M 1318 1871 
C 1331 1910 1491 2229 1728 2433 
C 1894 2586 2112 2689 2362 2689 
C 2618 2689 2707 2497 2707 2242 
C 2707 2203 2707 2076 2630 1775 
L 2470 1118 
C 2419 926 2298 453 2285 383 
C 2259 287 2221 121 2221 96 
C 2221 6 2291 -64 2387 -64 
C 2579 -64 2611 83 2669 313 
L 3053 1839 
C 3066 1890 3398 2689 4102 2689 
C 4358 2689 4448 2497 4448 2242 
C 4448 1884 4198 1188 4058 805 
C 4000 651 3968 568 3968 453 
C 3968 166 4166 -64 4474 -64 
C 5069 -64 5293 875 5293 913 
C 5293 945 5267 971 5229 971 
C 5171 971 5165 952 5133 843 
C 4986 332 4749 64 4493 64 
C 4429 64 4326 64 4326 269 
C 4326 436 4403 640 4429 710 
C 4544 1018 4832 1773 4832 2145 
C 4832 2528 4608 2816 4122 2816 
C 3693 2816 3347 2574 3091 2197 
C 3072 2542 2861 2816 2381 2816 
C 1811 2816 1510 2415 1395 2255 
C 1376 2618 1114 2816 832 2816 
C 646 2816 499 2727 378 2484 
C 262 2254 173 1865 173 1839 
C 173 1814 198 1782 243 1782 
C 294 1782 301 1788 339 1935 
C 435 2312 557 2689 813 2689 
C 960 2689 1011 2586 1011 2395 
C 1011 2254 947 2005 902 1807 
L 723 1118 
C 698 996 627 709 595 594 
C 550 428 480 128 480 96 
C 480 6 550 -64 646 -64 
C 723 -64 813 -26 864 70 
C 877 102 934 326 966 453 
L 1107 1028 
L 1318 1871 
z
" id="CMMI12-6d" transform="scale(0.015625)"/>
     </defs>
     <use transform="scale(0.996264)" xlink:href="#CMMI12-6d"/>
    </g>
   </g>
   <g id="text_3">
    <!-- $c(m)$ -->
    <g transform="translate(174.96 433.780325)scale(0.22 -0.22)">
     <defs>
      <path d="M 1958 -1561 
C 1958 -1555 1958 -1542 1939 -1523 
C 1645 -1224 858 -407 858 1581 
C 858 3569 1632 4379 1946 4697 
C 1946 4704 1958 4717 1958 4736 
C 1958 4755 1939 4768 1914 4768 
C 1843 4768 1299 4296 986 3594 
C 666 2887 576 2199 576 1588 
C 576 1128 621 351 1005 -471 
C 1312 -1135 1837 -1600 1914 -1600 
C 1946 -1600 1958 -1587 1958 -1561 
z
" id="CMR17-28" transform="scale(0.015625)"/>
      <path d="M 1683 1581 
C 1683 2040 1638 2817 1254 3639 
C 947 4303 422 4768 346 4768 
C 326 4768 301 4761 301 4729 
C 301 4717 307 4710 314 4697 
C 621 4378 1402 3568 1402 1584 
C 1402 -407 627 -1217 314 -1537 
C 307 -1549 301 -1556 301 -1568 
C 301 -1600 326 -1600 346 -1600 
C 416 -1600 960 -1128 1274 -426 
C 1594 281 1683 969 1683 1581 
z
" id="CMR17-29" transform="scale(0.015625)"/>
     </defs>
     <use transform="scale(0.996264)" xlink:href="#CMMI12-63"/>
     <use transform="translate(41.983234 0)scale(0.996264)" xlink:href="#CMR17-28"/>
     <use transform="translate(77.264001 0)scale(0.996264)" xlink:href="#CMMI12-6d"/>
     <use transform="translate(162.591226 0)scale(0.996264)" xlink:href="#CMR17-29"/>
    </g>
   </g>
   <g id="text_4">
    <!-- $\leftarrow \overline{\overline{c}}(m)= \overline{\MPC}m = (1-\UnempPrb^{1/\CRRA}\pmb{\text{\TH}}_{\mathsf{R}})m$ -->
    <g transform="translate(247.2768 137.778703)scale(0.22 -0.22)">
     <defs>
      <path d="M 5811 1472 
C 5926 1472 6042 1472 6042 1600 
C 6042 1728 5926 1728 5811 1728 
L 1056 1728 
C 1408 1997 1581 2259 1632 2342 
C 1920 2784 1971 3187 1971 3194 
C 1971 3270 1894 3270 1843 3270 
C 1734 3270 1728 3258 1702 3142 
C 1555 2515 1178 1984 454 1683 
C 384 1658 358 1645 358 1600 
C 358 1555 390 1542 454 1517 
C 1120 1242 1549 742 1709 26 
C 1728 -51 1734 -70 1843 -70 
C 1894 -70 1971 -70 1971 7 
C 1971 20 1914 423 1645 851 
C 1517 1043 1331 1267 1056 1472 
L 5811 1472 
z
" id="CMSY10-20" transform="scale(0.015625)"/>
      <path d="M 4115 2017 
C 4211 2017 4307 2017 4307 2125 
C 4307 2240 4198 2240 4090 2240 
L 512 2240 
C 403 2240 294 2240 294 2125 
C 294 2017 390 2017 486 2017 
L 4115 2017 
z
M 4090 896 
C 4198 896 4307 896 4307 1011 
C 4307 1119 4211 1119 4115 1119 
L 486 1119 
C 390 1119 294 1119 294 1011 
C 294 896 403 896 512 896 
L 4090 896 
z
" id="CMR17-3d" transform="scale(0.015625)"/>
      <path d="M 1363 1600 
C 1574 1714 1811 1912 1971 2046 
C 2355 2377 2496 2479 2739 2574 
C 2714 2536 2707 2485 2707 2441 
C 2707 2268 2854 2236 2918 2236 
C 3123 2236 3238 2427 3238 2548 
C 3238 2586 3226 2752 3002 2752 
C 2618 2752 2240 2431 1958 2198 
C 1587 1876 1402 1738 1139 1656 
L 1382 2656 
C 1382 2759 1299 2816 1216 2816 
C 1158 2816 1018 2797 966 2592 
L 371 224 
C 352 148 352 134 352 96 
C 352 6 422 -64 518 -64 
C 710 -64 749 106 781 244 
C 819 380 1082 1472 1094 1472 
C 1907 1472 2182 1264 2182 943 
C 2182 897 2182 878 2163 806 
C 2138 682 2138 609 2138 570 
C 2138 178 2387 -64 2701 -64 
C 2963 -64 3110 123 3206 291 
C 3341 543 3424 898 3424 923 
C 3424 956 3398 981 3360 981 
C 3302 981 3296 956 3270 852 
C 3187 542 3046 64 2720 64 
C 2579 64 2509 148 2509 374 
C 2509 498 2534 641 2560 737 
C 2573 802 2592 880 2592 951 
C 2592 1541 1786 1600 1363 1600 
z
" id="CMMI12-14" transform="scale(0.015625)"/>
      <path d="M 1702 4058 
C 1702 4192 1696 4192 1606 4192 
C 1357 3916 979 3827 621 3827 
C 602 3827 570 3827 563 3808 
C 557 3795 557 3782 557 3648 
C 755 3648 1088 3686 1344 3839 
L 1344 461 
C 1344 236 1331 160 781 160 
L 589 160 
L 589 0 
C 896 0 1216 0 1523 0 
C 1830 0 2150 0 2458 0 
L 2458 160 
L 2266 160 
C 1715 160 1702 230 1702 458 
L 1702 4058 
z
" id="CMR17-31" transform="scale(0.015625)"/>
      <path d="M 4218 1472 
C 4326 1472 4442 1472 4442 1600 
C 4442 1728 4326 1728 4218 1728 
L 755 1728 
C 646 1728 531 1728 531 1600 
C 531 1472 646 1472 755 1472 
L 4218 1472 
z
" id="CMSY10-0" transform="scale(0.015625)"/>
      <path d="M 1050 768 
C 1446 1680 2195 2490 3046 2490 
C 3366 2490 3507 2221 3507 1869 
C 3507 1594 3379 998 3174 627 
C 3014 339 2733 64 2432 64 
C 2304 64 2010 122 2010 473 
C 2099 492 2138 556 2138 614 
C 2138 685 2086 723 2029 723 
C 1869 723 1869 525 1869 461 
C 1869 109 2144 -64 2432 -64 
C 3136 -64 3872 800 3872 1670 
C 3872 2150 3603 2618 3059 2618 
C 2669 2618 2234 2470 1786 2054 
C 1542 1837 1274 1523 954 902 
C 800 1075 800 1280 800 1370 
C 800 1850 1107 2672 1549 2757 
C 1587 2763 1626 2769 1626 2830 
C 1626 2836 1626 2879 1555 2879 
C 1101 2879 525 2001 525 1186 
C 525 856 595 760 794 499 
C 570 -146 480 -694 480 -893 
C 480 -1158 582 -1390 883 -1390 
C 1306 -1390 1715 -838 1715 -343 
C 1715 -111 1658 -35 1440 261 
C 1350 370 1133 652 1050 768 
z
M 890 351 
L 1357 -257 
C 1427 -360 1434 -436 1434 -526 
C 1434 -897 1152 -1262 883 -1262 
C 704 -1262 621 -1134 621 -891 
C 621 -596 800 95 890 351 
z
" id="CMMI12-7d" transform="scale(0.015625)"/>
      <path d="M 2746 4562 
C 2746 4569 2784 4666 2784 4678 
C 2784 4755 2720 4800 2669 4800 
C 2637 4800 2579 4800 2528 4659 
L 384 -1363 
C 384 -1370 346 -1465 346 -1478 
C 346 -1555 410 -1600 461 -1600 
C 499 -1600 557 -1593 602 -1459 
L 2746 4562 
z
" id="CMMI12-3d" transform="scale(0.015625)"/>
      <path d="M 198 -1107 
C 192 -1139 179 -1177 179 -1216 
C 179 -1312 256 -1376 352 -1376 
C 448 -1376 538 -1312 576 -1222 
C 602 -1164 781 -397 986 390 
C 1114 70 1350 -64 1600 -64 
C 2323 -64 3142 830 3142 1795 
C 3142 2478 2726 2816 2285 2816 
C 1722 2816 1037 2235 826 1385 
L 198 -1107 
z
M 1594 64 
C 1158 64 1050 569 1050 645 
C 1050 684 1210 1295 1229 1391 
C 1555 2670 2182 2670 2278 2670 
C 2566 2670 2726 2410 2726 2036 
C 2726 1712 2554 1084 2445 819 
C 2253 381 1920 64 1594 64 
z
" id="CMMI12-1a" transform="scale(0.015625)"/>
      <path d="M 474 4365 
L 474 4224 
L 582 4224 
C 749 4224 883 4205 883 3955 
L 883 410 
C 883 160 774 141 474 141 
L 474 0 
L 1594 0 
L 1594 141 
L 1466 141 
C 1318 141 1184 160 1184 365 
L 1184 1140 
L 2176 1140 
C 2797 1197 3251 1723 3251 2327 
C 3251 2872 2861 3411 2266 3501 
C 2163 3520 2061 3520 1958 3520 
L 1184 3520 
L 1184 3973 
C 1184 4148 1210 4224 1594 4224 
L 1594 4365 
L 474 4365 
z
M 1184 1280 
L 1184 3379 
L 1786 3379 
C 2093 3379 2394 3354 2624 3077 
C 2803 2873 2899 2596 2899 2327 
C 2899 1871 2586 1351 2003 1280 
L 1184 1280 
z
" id="SFRM3583-de" transform="scale(0.015625)"/>
      <path d="M 2522 2109 
L 2534 2115 
C 3533 2459 3539 3147 3539 3268 
C 3539 3873 2925 4453 2003 4453 
L 570 4453 
L 570 32 
L 1094 32 
L 1094 2048 
L 2035 2048 
L 3168 32 
L 3706 32 
L 2522 2109 
z
M 1094 2437 
L 1094 4096 
L 1933 4096 
C 2746 4096 3034 3637 3034 3267 
C 3034 2922 2778 2437 1933 2437 
L 1094 2437 
z
" id="CMSS17-52" transform="scale(0.015625)"/>
     </defs>
     <use transform="scale(0.996264)" xlink:href="#CMSY10-20"/>
     <use transform="translate(127.300683 0)scale(0.996264)" xlink:href="#CMMI12-63"/>
     <use transform="translate(169.283917 0)scale(0.996264)" xlink:href="#CMR17-28"/>
     <use transform="translate(204.564685 0)scale(0.996264)" xlink:href="#CMMI12-6d"/>
     <use transform="translate(289.891909 0)scale(0.996264)" xlink:href="#CMR17-29"/>
     <use transform="translate(352.846686 0)scale(0.996264)" xlink:href="#CMR17-3d"/>
     <use transform="translate(452.235483 0)scale(0.996264)" xlink:href="#CMMI12-14"/>
     <use transform="translate(508.390107 0)scale(0.996264)" xlink:href="#CMMI12-6d"/>
     <use transform="translate(621.39134 0)scale(0.996264)" xlink:href="#CMR17-3d"/>
     <use transform="translate(720.780137 0)scale(0.996264)" xlink:href="#CMR17-28"/>
     <use transform="translate(756.060905 0)scale(0.996264)" xlink:href="#CMR17-31"/>
     <use transform="translate(823.890589 0)scale(0.996264)" xlink:href="#CMSY10-0"/>
     <use transform="translate(923.517264 0)scale(0.996264)" xlink:href="#CMMI12-7d"/>
     <use transform="translate(985.621759 36.153639)scale(0.697382)" xlink:href="#CMR17-31"/>
     <use transform="translate(1017.604941 36.153639)scale(0.697382)" xlink:href="#CMMI12-3d"/>
     <use transform="translate(1051.747232 36.153639)scale(0.697382)" xlink:href="#CMMI12-1a"/>
     <use transform="translate(1083.037426 0)scale(0.996264)" xlink:href="#SFRM3583-de"/>
     <use transform="translate(1085.251307 2.767393)scale(0.996264)" xlink:href="#SFRM3583-de"/>
     <use transform="translate(1087.465188 0)scale(0.996264)" xlink:href="#SFRM3583-de"/>
     <use transform="translate(1143.174871 -14.943915)scale(0.697382)" xlink:href="#CMSS17-52"/>
     <use transform="translate(1185.964118 0)scale(0.996264)" xlink:href="#CMR17-29"/>
     <use transform="translate(1221.244886 0)scale(0.996264)" xlink:href="#CMMI12-6d"/>
     <path d="M 127.300683 74.77436 
L 169.283917 74.77436 
L 169.283917 78.75931 
L 127.300683 78.75931 
L 127.300683 74.77436 
z
"/>
     <path d="M 127.300683 54.849612 
L 169.283917 54.849612 
L 169.283917 58.834561 
L 127.300683 58.834561 
L 127.300683 54.849612 
z
"/>
     <path d="M 452.235483 54.849612 
L 508.390107 54.849612 
L 508.390107 58.834561 
L 452.235483 58.834561 
L 452.235483 54.849612 
z
"/>
    </g>
   </g>
   <g id="text_5">
    <!-- Upper Bound $ = $ Min $[\overline{\overline{c}}(m),\overline{c}(m)]$ -->
    <g transform="translate(429.408 180.516653)scale(0.22 -0.22)">
     <defs>
      <path d="M 467 4365 
L 467 4224 
L 595 4224 
C 742 4224 877 4205 877 3994 
L 877 1505 
C 877 810 1274 -64 2227 -64 
C 2976 -64 3379 747 3418 1372 
L 3418 3790 
C 3418 4121 3597 4224 3827 4224 
L 3827 4365 
L 2918 4365 
L 2918 4224 
C 3142 4224 3328 4121 3328 3796 
L 3328 1653 
C 3328 1199 3270 728 2925 383 
C 2733 192 2464 77 2195 77 
C 1747 77 1389 434 1274 849 
C 1197 1104 1190 1366 1190 1627 
L 1190 3988 
C 1190 4179 1261 4224 1600 4224 
L 1600 4365 
L 467 4365 
z
" id="SFRM3583-55" transform="scale(0.015625)"/>
      <path d="M 288 2750 
L 288 2608 
L 371 2608 
C 576 2608 666 2524 666 2326 
L 666 -731 
C 666 -775 672 -818 672 -862 
C 672 -1062 512 -1075 346 -1075 
L 288 -1075 
L 288 -1216 
L 1306 -1216 
L 1306 -1075 
L 1216 -1075 
C 1069 -1075 928 -1056 928 -854 
L 934 471 
C 1069 135 1459 -32 1728 -32 
C 2438 -32 2912 691 2912 1400 
C 2912 2032 2534 2819 1798 2819 
C 1453 2819 1050 2600 928 2298 
L 922 2819 
L 288 2750 
z
M 2579 1278 
C 2547 780 2278 45 1709 45 
C 1370 45 922 349 922 749 
C 922 788 928 827 928 866 
L 928 1821 
C 928 1885 922 1950 922 2014 
C 922 2375 1357 2737 1734 2737 
C 2349 2737 2586 1898 2586 1394 
C 2586 1355 2586 1317 2579 1278 
z
" id="SFRM3583-70" transform="scale(0.015625)"/>
      <path d="M 563 1524 
L 2246 1524 
C 2259 1524 2285 1517 2310 1517 
C 2355 1517 2374 1543 2374 1581 
C 2374 2154 2099 2816 1382 2816 
C 614 2816 237 2031 237 1405 
C 237 778 589 70 1350 -26 
C 1376 -26 1402 -32 1427 -32 
C 1869 -32 2208 273 2355 686 
C 2362 705 2368 730 2368 749 
C 2368 768 2362 787 2336 787 
C 2272 787 2266 686 2246 628 
C 2118 324 1843 57 1485 57 
C 1216 57 960 210 813 425 
C 576 742 563 1149 563 1524 
z
M 570 1600 
C 582 2103 832 2740 1370 2740 
C 1818 2740 2010 2264 2061 1890 
C 2067 1793 2067 1697 2080 1600 
L 570 1600 
z
" id="SFRM3583-65" transform="scale(0.015625)"/>
      <path d="M 288 2746 
L 288 2605 
L 352 2605 
C 557 2605 666 2560 666 2275 
L 666 361 
C 666 154 512 141 288 141 
L 288 0 
L 1389 0 
L 1389 141 
L 1261 141 
C 1075 141 922 160 922 407 
L 922 1350 
C 922 1900 1037 2740 1658 2740 
C 1728 2740 1798 2721 1862 2695 
C 1786 2663 1722 2611 1722 2520 
C 1722 2430 1792 2339 1901 2339 
C 1997 2339 2074 2423 2074 2519 
C 2074 2732 1837 2816 1664 2816 
C 1274 2816 979 2435 922 2080 
L 915 2816 
L 288 2746 
z
" id="SFRM3583-72" transform="scale(0.015625)"/>
      <path d="M 474 4352 
L 474 4231 
L 582 4231 
C 749 4231 883 4212 883 3962 
L 883 416 
C 883 166 774 147 474 147 
L 474 0 
L 2067 0 
C 2176 0 2278 0 2387 0 
C 2995 0 3738 369 3738 1153 
C 3738 1771 3168 2275 2554 2275 
C 2976 2391 3578 2592 3578 3297 
C 3578 3925 2989 4352 2387 4352 
L 474 4352 
z
M 1184 2225 
L 2285 2225 
C 2470 2225 2656 2225 2822 2129 
C 3168 1945 3379 1569 3379 1186 
C 3379 567 2854 147 2227 147 
C 2131 147 2029 147 1933 147 
L 1357 147 
C 1235 147 1184 217 1184 332 
L 1184 2225 
z
M 1184 2307 
L 1184 4020 
C 1184 4135 1210 4231 1357 4231 
L 1907 4231 
C 2003 4231 2099 4231 2202 4231 
C 2662 4231 3232 3962 3232 3291 
C 3232 2799 2816 2403 2342 2326 
C 2240 2307 2131 2307 2029 2307 
L 1184 2307 
z
" id="SFRM3583-42" transform="scale(0.015625)"/>
      <path d="M 1350 2816 
C 614 2726 237 2042 237 1376 
C 237 698 685 -32 1440 -32 
L 1504 -32 
C 2240 58 2624 736 2624 1382 
C 2624 2035 2182 2822 1440 2822 
C 1408 2822 1382 2816 1350 2816 
z
M 563 1274 
L 563 1376 
C 563 1856 621 2395 1114 2663 
C 1197 2702 1293 2734 1389 2734 
L 1434 2734 
C 2054 2734 2298 2012 2298 1495 
C 2298 990 2246 269 1606 77 
C 1549 64 1491 51 1434 51 
C 960 51 653 525 595 979 
C 576 1075 576 1178 563 1274 
z
" id="SFRM3583-6f" transform="scale(0.015625)"/>
      <path d="M 301 2732 
L 301 2592 
L 358 2592 
C 570 2592 685 2560 685 2181 
C 685 2098 678 2015 678 1930 
L 678 904 
C 678 443 762 -32 1459 -32 
C 1856 -32 2170 248 2266 620 
L 2272 0 
L 2906 0 
L 2906 160 
L 2842 160 
C 2675 160 2528 179 2528 447 
L 2528 2803 
L 1888 2732 
L 1888 2592 
L 1958 2592 
C 2176 2592 2266 2521 2266 2258 
L 2266 1077 
C 2266 609 2042 45 1491 45 
C 1318 45 1133 102 1030 250 
C 947 366 941 526 941 673 
L 941 2803 
L 301 2732 
z
" id="SFRM3583-75" transform="scale(0.015625)"/>
      <path d="M 301 2746 
L 301 2605 
L 365 2605 
C 570 2605 678 2560 678 2275 
L 678 361 
C 678 154 525 141 301 141 
L 301 0 
L 1318 0 
L 1318 141 
L 1229 141 
C 1082 141 941 160 941 361 
L 941 1777 
C 979 2217 1203 2740 1709 2740 
C 2112 2740 2266 2417 2266 1951 
L 2266 361 
C 2266 154 2112 141 1888 141 
L 1888 0 
L 2906 0 
L 2906 141 
L 2803 141 
C 2656 141 2528 160 2528 386 
L 2528 1885 
C 2528 2299 2451 2816 1760 2816 
C 1414 2816 1178 2629 1024 2352 
C 986 2281 947 2204 934 2126 
L 928 2816 
L 301 2746 
z
" id="SFRM3583-6e" transform="scale(0.015625)"/>
      <path d="M 1882 4397 
L 1882 4256 
L 1952 4256 
C 2150 4256 2259 4198 2259 3955 
L 2253 2323 
C 2131 2617 1766 2816 1459 2816 
C 710 2816 269 2052 269 1373 
C 269 731 653 0 1338 0 
L 1395 0 
C 1741 0 2118 204 2246 507 
L 2253 0 
L 2893 0 
L 2893 160 
L 2816 160 
C 2605 160 2515 237 2515 461 
L 2515 4467 
L 1882 4397 
z
M 595 1245 
L 595 1341 
C 595 1783 659 2310 1056 2593 
C 1190 2689 1344 2740 1498 2740 
C 1862 2740 2259 2393 2259 2021 
C 2259 1951 2253 1874 2253 1804 
L 2253 770 
C 2253 424 1811 58 1440 58 
C 947 58 678 558 621 981 
C 608 1072 608 1155 595 1245 
z
" id="SFRM3583-64" transform="scale(0.015625)"/>
      <path d="M 474 4365 
L 474 4224 
L 582 4224 
C 736 4224 890 4205 890 3987 
C 890 3937 883 3886 883 3841 
L 883 799 
C 883 735 890 671 890 601 
C 890 397 832 141 474 141 
L 474 0 
L 1382 0 
L 1382 141 
C 1005 141 973 404 973 627 
L 979 4230 
C 1005 4096 1069 3961 1114 3834 
C 1562 2640 1965 1432 2394 231 
C 2419 154 2458 0 2515 0 
C 2592 0 2790 665 2906 991 
C 3283 2020 3642 3068 4013 4110 
C 4026 4154 4051 4199 4058 4250 
L 4064 365 
C 4064 192 3994 141 3654 141 
L 3654 0 
L 4774 0 
L 4774 141 
L 4666 141 
C 4499 141 4365 160 4365 410 
L 4365 3809 
C 4365 3854 4358 3905 4358 3955 
C 4358 4211 4506 4224 4774 4224 
L 4774 4365 
L 4096 4365 
L 4032 4352 
L 3917 4064 
L 2624 422 
L 1331 4064 
L 1216 4352 
L 1152 4365 
L 474 4365 
z
" id="SFRM3583-4d" transform="scale(0.015625)"/>
      <path d="M 326 2735 
L 326 2593 
L 358 2593 
C 563 2593 678 2561 678 2251 
L 678 360 
C 678 154 531 141 307 141 
L 307 0 
L 1274 0 
L 1274 141 
L 1190 141 
C 1056 141 934 154 934 373 
L 934 2805 
L 326 2735 
z
M 698 4160 
C 595 4160 531 4045 531 3962 
C 531 3866 608 3751 730 3751 
C 858 3751 934 3857 934 3952 
C 934 4046 858 4160 736 4160 
C 723 4160 710 4160 698 4160 
z
" id="SFRM3583-69" transform="scale(0.015625)"/>
      <path d="M 1504 -1600 
L 1504 -1377 
L 902 -1377 
L 902 4544 
L 1504 4544 
L 1504 4767 
L 678 4767 
L 678 -1600 
L 1504 -1600 
z
" id="CMR17-5b" transform="scale(0.015625)"/>
      <path d="M 1248 -31 
C 1248 343 1126 619 864 619 
C 659 619 557 453 557 313 
C 557 172 653 0 870 0 
C 954 0 1024 26 1082 83 
C 1094 96 1101 96 1107 96 
C 1120 96 1120 5 1120 -27 
C 1120 -240 1082 -659 710 -1080 
C 640 -1157 640 -1170 640 -1183 
C 640 -1216 672 -1248 704 -1248 
C 755 -1248 1248 -771 1248 -31 
z
" id="CMMI12-3b" transform="scale(0.015625)"/>
      <path d="M 915 4767 
L 90 4767 
L 90 4544 
L 691 4544 
L 691 -1377 
L 90 -1377 
L 90 -1600 
L 915 -1600 
L 915 4767 
z
" id="CMR17-5d" transform="scale(0.015625)"/>
     </defs>
     <use transform="scale(0.996264)" xlink:href="#SFRM3583-55"/>
     <use transform="translate(66.840991 0)scale(0.996264)" xlink:href="#SFRM3583-70"/>
     <use transform="translate(116.379419 0)scale(0.996264)" xlink:href="#SFRM3583-70"/>
     <use transform="translate(168.39782 0)scale(0.996264)" xlink:href="#SFRM3583-65"/>
     <use transform="translate(208.016219 0)scale(0.996264)" xlink:href="#SFRM3583-72"/>
     <use transform="translate(272.372858 0)scale(0.996264)" xlink:href="#SFRM3583-42"/>
     <use transform="translate(335.522583 0)scale(0.996264)" xlink:href="#SFRM3583-6f"/>
     <use transform="translate(380.101049 0)scale(0.996264)" xlink:href="#SFRM3583-75"/>
     <use transform="translate(429.639478 0)scale(0.996264)" xlink:href="#SFRM3583-6e"/>
     <use transform="translate(479.177906 0)scale(0.996264)" xlink:href="#SFRM3583-64"/>
     <use transform="translate(558.414627 0)scale(0.996264)" xlink:href="#CMR17-3d"/>
     <use transform="translate(659.827709 0)scale(0.996264)" xlink:href="#SFRM3583-4d"/>
     <use transform="translate(741.548782 0)scale(0.996264)" xlink:href="#SFRM3583-69"/>
     <use transform="translate(766.287114 0)scale(0.996264)" xlink:href="#SFRM3583-6e"/>
     <use transform="translate(845.523835 0)scale(0.996264)" xlink:href="#CMR17-5b"/>
     <use transform="translate(870.394894 0)scale(0.996264)" xlink:href="#CMMI12-63"/>
     <use transform="translate(912.378127 0)scale(0.996264)" xlink:href="#CMR17-28"/>
     <use transform="translate(947.658895 0)scale(0.996264)" xlink:href="#CMMI12-6d"/>
     <use transform="translate(1032.98612 0)scale(0.996264)" xlink:href="#CMR17-29"/>
     <use transform="translate(1068.266887 0)scale(0.996264)" xlink:href="#CMMI12-3b"/>
     <use transform="translate(1111.96847 0)scale(0.996264)" xlink:href="#CMMI12-63"/>
     <use transform="translate(1153.951703 0)scale(0.996264)" xlink:href="#CMR17-28"/>
     <use transform="translate(1189.232471 0)scale(0.996264)" xlink:href="#CMMI12-6d"/>
     <use transform="translate(1274.559696 0)scale(0.996264)" xlink:href="#CMR17-29"/>
     <use transform="translate(1309.840463 0)scale(0.996264)" xlink:href="#CMR17-5d"/>
     <path d="M 870.394894 74.77436 
L 912.378127 74.77436 
L 912.378127 78.75931 
L 870.394894 78.75931 
L 870.394894 74.77436 
z
"/>
     <path d="M 870.394894 54.849612 
L 912.378127 54.849612 
L 912.378127 58.834561 
L 870.394894 58.834561 
L 870.394894 54.849612 
z
"/>
     <path d="M 1111.96847 54.849612 
L 1153.951703 54.849612 
L 1153.951703 58.834561 
L 1111.96847 58.834561 
L 1111.96847 54.849612 
z
"/>
    </g>
   </g>
   <g id="text_6">
    <!-- Lower Bound: $\underline{c}(m)= (1-\pmb{\text{\TH}}_{\mathsf{R}})\underline{\kappa}m$ -->
    <g transform="translate(322.272 441.666292)scale(0.22 -0.22)">
     <defs>
      <path d="M 467 4365 
L 467 4224 
L 576 4224 
C 742 4224 877 4205 877 3955 
L 877 410 
C 877 160 768 141 467 141 
L 467 0 
L 3206 0 
L 3341 1592 
L 3258 1592 
C 3219 1100 3194 397 2470 192 
C 2278 141 2086 141 1888 141 
L 1376 141 
C 1242 141 1184 205 1184 346 
C 1184 391 1190 429 1190 468 
L 1190 3809 
C 1190 3854 1184 3905 1184 3955 
C 1184 4179 1306 4224 1562 4224 
L 1702 4224 
L 1702 4365 
L 467 4365 
z
" id="SFRM3583-4c" transform="scale(0.015625)"/>
      <path d="M 90 2752 
L 90 2612 
L 141 2612 
C 397 2612 429 2496 563 2088 
L 1216 122 
C 1235 70 1248 -32 1318 -32 
L 1325 -32 
C 1382 -19 1402 96 1421 147 
L 1792 1264 
C 1850 1443 1907 1622 1971 1801 
C 2003 1902 2048 2005 2067 2107 
L 2074 2107 
C 2093 2005 2138 1902 2170 1801 
C 2234 1622 2291 1443 2349 1264 
L 2720 147 
C 2739 96 2758 -19 2816 -32 
L 2822 -32 
C 2893 -32 2906 70 2925 122 
L 3098 638 
C 3264 1143 3430 1641 3597 2145 
C 3661 2350 3776 2612 4051 2612 
L 4051 2752 
L 3296 2752 
L 3296 2612 
C 3456 2612 3552 2464 3552 2350 
C 3552 2254 3514 2158 3482 2069 
C 3290 1501 3104 926 2912 358 
C 2835 538 2784 729 2726 914 
C 2579 1354 2426 1801 2278 2248 
C 2259 2312 2221 2389 2221 2458 
C 2221 2592 2387 2612 2490 2612 
L 2490 2752 
L 1600 2752 
L 1600 2612 
L 1645 2612 
C 1824 2612 1920 2573 1984 2357 
C 1997 2325 2016 2280 2016 2241 
L 2016 2229 
C 2010 2165 1984 2107 1965 2049 
L 1843 1698 
C 1690 1264 1536 817 1408 377 
L 1402 377 
C 1389 447 1357 517 1338 588 
L 1216 952 
C 1094 1315 973 1674 851 2038 
L 762 2318 
C 742 2363 723 2414 723 2459 
L 723 2478 
C 742 2592 896 2612 992 2612 
L 992 2752 
L 90 2752 
z
" id="SFRM3583-77" transform="scale(0.015625)"/>
      <path d="M 762 2752 
C 659 2752 595 2637 595 2554 
C 595 2458 672 2342 794 2342 
C 922 2342 1005 2449 1005 2544 
C 1005 2633 928 2752 800 2752 
C 787 2752 774 2752 762 2752 
z
M 762 410 
C 659 410 595 295 595 212 
C 595 116 672 0 794 0 
C 922 0 1005 107 1005 202 
C 1005 291 928 410 800 410 
C 787 410 774 410 762 410 
z
" id="SFRM3583-3a" transform="scale(0.015625)"/>
     </defs>
     <use transform="scale(0.996264)" xlink:href="#SFRM3583-4c"/>
     <use transform="translate(55.709683 0)scale(0.996264)" xlink:href="#SFRM3583-6f"/>
     <use transform="translate(97.808161 0)scale(0.996264)" xlink:href="#SFRM3583-77"/>
     <use transform="translate(159.74676 0)scale(0.996264)" xlink:href="#SFRM3583-65"/>
     <use transform="translate(199.365158 0)scale(0.996264)" xlink:href="#SFRM3583-72"/>
     <use transform="translate(263.721798 0)scale(0.996264)" xlink:href="#SFRM3583-42"/>
     <use transform="translate(326.871522 0)scale(0.996264)" xlink:href="#SFRM3583-6f"/>
     <use transform="translate(371.449989 0)scale(0.996264)" xlink:href="#SFRM3583-75"/>
     <use transform="translate(420.988417 0)scale(0.996264)" xlink:href="#SFRM3583-6e"/>
     <use transform="translate(470.526845 0)scale(0.996264)" xlink:href="#SFRM3583-64"/>
     <use transform="translate(520.065273 0)scale(0.996264)" xlink:href="#SFRM3583-3a"/>
     <use transform="translate(584.421913 0)scale(0.996264)" xlink:href="#CMMI12-63"/>
     <use transform="translate(626.405146 0)scale(0.996264)" xlink:href="#CMR17-28"/>
     <use transform="translate(661.685914 0)scale(0.996264)" xlink:href="#CMMI12-6d"/>
     <use transform="translate(747.013139 0)scale(0.996264)" xlink:href="#CMR17-29"/>
     <use transform="translate(809.967915 0)scale(0.996264)" xlink:href="#CMR17-3d"/>
     <use transform="translate(909.356712 0)scale(0.996264)" xlink:href="#CMR17-28"/>
     <use transform="translate(944.63748 0)scale(0.996264)" xlink:href="#CMR17-31"/>
     <use transform="translate(1012.467164 0)scale(0.996264)" xlink:href="#CMSY10-0"/>
     <use transform="translate(1107.665985 0)scale(0.996264)" xlink:href="#SFRM3583-de"/>
     <use transform="translate(1109.879866 2.767393)scale(0.996264)" xlink:href="#SFRM3583-de"/>
     <use transform="translate(1112.093748 0)scale(0.996264)" xlink:href="#SFRM3583-de"/>
     <use transform="translate(1167.803431 -14.943915)scale(0.697382)" xlink:href="#CMSS17-52"/>
     <use transform="translate(1210.592678 0)scale(0.996264)" xlink:href="#CMR17-29"/>
     <use transform="translate(1245.873446 0)scale(0.996264)" xlink:href="#CMMI12-14"/>
     <use transform="translate(1302.02807 0)scale(0.996264)" xlink:href="#CMMI12-6d"/>
     <path d="M 584.421913 -15.939799 
L 626.405146 -15.939799 
L 626.405146 -11.954849 
L 584.421913 -11.954849 
L 584.421913 -15.939799 
z
"/>
     <path d="M 1245.873446 -15.939799 
L 1302.02807 -15.939799 
L 1302.02807 -11.954849 
L 1245.873446 -11.954849 
L 1245.873446 -15.939799 
z
"/>
    </g>
   </g>
   <g id="text_7">
    <!-- $\overline{c}(m)= (m-1+h)\underline{\kappa}$ -->
    <g transform="translate(153.5328 220.268245)scale(0.22 -0.22)">
     <defs>
      <path d="M 2413 1472 
L 4109 1472 
C 4198 1472 4307 1472 4307 1580 
C 4307 1695 4205 1695 4109 1695 
L 2413 1695 
L 2413 3386 
C 2413 3475 2413 3584 2304 3584 
C 2189 3584 2189 3482 2189 3386 
L 2189 1695 
L 493 1695 
C 403 1695 294 1695 294 1587 
C 294 1472 397 1472 493 1472 
L 2189 1472 
L 2189 -218 
C 2189 -307 2189 -416 2298 -416 
C 2413 -416 2413 -314 2413 -218 
L 2413 1472 
z
" id="CMR17-2b" transform="scale(0.015625)"/>
      <path d="M 1798 4257 
C 1805 4283 1818 4321 1818 4352 
C 1818 4416 1754 4416 1741 4416 
C 1734 4416 1421 4388 1389 4380 
C 1280 4373 1184 4358 1069 4358 
C 909 4345 864 4339 864 4224 
C 864 4160 915 4160 1005 4160 
C 1318 4160 1325 4103 1325 4040 
C 1325 4002 1312 3951 1306 3932 
L 378 248 
C 352 152 352 140 352 101 
C 352 -38 461 -64 525 -64 
C 634 -64 717 19 749 89 
L 1037 1245 
C 1069 1386 1107 1520 1139 1660 
C 1210 1929 1210 1935 1331 2120 
C 1453 2305 1741 2689 2234 2689 
C 2490 2689 2579 2497 2579 2242 
C 2579 1884 2330 1188 2189 805 
C 2131 651 2099 568 2099 453 
C 2099 166 2298 -64 2605 -64 
C 3200 -64 3424 875 3424 913 
C 3424 945 3398 971 3360 971 
C 3302 971 3296 952 3264 843 
C 3117 332 2880 64 2624 64 
C 2560 64 2458 64 2458 269 
C 2458 436 2534 640 2560 710 
C 2675 1018 2963 1773 2963 2145 
C 2963 2528 2739 2816 2253 2816 
C 1888 2816 1568 2644 1306 2312 
L 1798 4257 
z
" id="CMMI12-68" transform="scale(0.015625)"/>
     </defs>
     <use transform="scale(0.996264)" xlink:href="#CMMI12-63"/>
     <use transform="translate(41.983234 0)scale(0.996264)" xlink:href="#CMR17-28"/>
     <use transform="translate(77.264001 0)scale(0.996264)" xlink:href="#CMMI12-6d"/>
     <use transform="translate(162.591226 0)scale(0.996264)" xlink:href="#CMR17-29"/>
     <use transform="translate(225.546002 0)scale(0.996264)" xlink:href="#CMR17-3d"/>
     <use transform="translate(324.9348 0)scale(0.996264)" xlink:href="#CMR17-28"/>
     <use transform="translate(360.215567 0)scale(0.996264)" xlink:href="#CMMI12-6d"/>
     <use transform="translate(467.681999 0)scale(0.996264)" xlink:href="#CMSY10-0"/>
     <use transform="translate(567.308673 0)scale(0.996264)" xlink:href="#CMR17-31"/>
     <use transform="translate(635.138358 0)scale(0.996264)" xlink:href="#CMR17-2b"/>
     <use transform="translate(728.992353 0)scale(0.996264)" xlink:href="#CMMI12-68"/>
     <use transform="translate(785.146977 0)scale(0.996264)" xlink:href="#CMR17-29"/>
     <use transform="translate(820.427745 0)scale(0.996264)" xlink:href="#CMMI12-14"/>
     <path d="M 0 54.849612 
L 41.983234 54.849612 
L 41.983234 58.834561 
L 0 58.834561 
L 0 54.849612 
z
"/>
     <path d="M 820.427745 -15.939799 
L 876.582369 -15.939799 
L 876.582369 -11.954849 
L 820.427745 -11.954849 
L 820.427745 -15.939799 
z
"/>
    </g>
   </g>
  </g>
 </g>
 <defs>
  <clipPath id="p141ddc8b45">
   <rect height="443.52" width="669.6" x="108" y="69.12"/>
  </clipPath>
 </defs>
</svg>
