<?xml version="1.0" encoding="utf-8" standalone="no"?>
<!DOCTYPE svg PUBLIC "-//W3C//DTD SVG 1.1//EN"
  "http://www.w3.org/Graphics/SVG/1.1/DTD/svg11.dtd">
<svg height="648pt" version="1.1" viewBox="0 0 864 648" width="864pt" xmlns="http://www.w3.org/2000/svg" xmlns:xlink="http://www.w3.org/1999/xlink">
 <metadata>
  <rdf:RDF xmlns:cc="http://creativecommons.org/ns#" xmlns:dc="http://purl.org/dc/elements/1.1/" xmlns:rdf="http://www.w3.org/1999/02/22-rdf-syntax-ns#">
   <cc:Work>
    <dc:type rdf:resource="http://purl.org/dc/dcmitype/StillImage"/>
    <dc:format>image/svg+xml</dc:format>
    <dc:creator>
     <cc:Agent>
      <dc:title>Matplotlib v3.4.2, https://matplotlib.org/</dc:title>
     </cc:Agent>
    </dc:creator>
   </cc:Work>
  </rdf:RDF>
 </metadata>
 <defs>
  <style type="text/css">*{stroke-linecap:butt;stroke-linejoin:round;}</style>
 </defs>
 <g id="figure_1">
  <g id="patch_1">
   <path d="M 0 648 
L 864 648 
L 864 0 
L 0 0 
z
" style="fill:#ffffff;"/>
  </g>
  <g id="axes_1">
   <g id="patch_2">
    <path d="M 108 576.72 
L 777.6 576.72 
L 777.6 77.76 
L 108 77.76 
z
" style="fill:#ffffff;"/>
   </g>
   <g id="patch_3">
    <path clip-path="url(#p5f83345e9a)" d="M 491.498182 145.476 
L 500.629091 141.912 
L 500.629091 145.44036 
L 528.021818 145.44036 
L 528.021818 145.51164 
L 500.629091 145.51164 
L 500.629091 149.04 
z
" style="stroke:#000000;stroke-linejoin:miter;"/>
   </g>
   <g id="matplotlib.axis_1">
    <g id="xtick_1">
     <g id="line2d_1">
      <defs>
       <path d="M 0 0 
L 0 3.5 
" id="m4abed1d830" style="stroke:#000000;stroke-width:0.8;"/>
      </defs>
      <g>
       <use style="stroke:#000000;stroke-width:0.8;" x="108" xlink:href="#m4abed1d830" y="576.72"/>
      </g>
     </g>
     <g id="line2d_2">
      <defs>
       <path d="M 0 0 
L 0 -3.5 
" id="mda35cc5777" style="stroke:#000000;stroke-width:0.8;"/>
      </defs>
      <g>
       <use style="stroke:#000000;stroke-width:0.8;" x="108" xlink:href="#mda35cc5777" y="77.76"/>
      </g>
     </g>
    </g>
    <g id="xtick_2">
     <g id="line2d_3">
      <g>
       <use style="stroke:#000000;stroke-width:0.8;" x="229.745455" xlink:href="#m4abed1d830" y="576.72"/>
      </g>
     </g>
     <g id="line2d_4">
      <g>
       <use style="stroke:#000000;stroke-width:0.8;" x="229.745455" xlink:href="#mda35cc5777" y="77.76"/>
      </g>
     </g>
    </g>
    <g id="xtick_3">
     <g id="line2d_5">
      <g>
       <use style="stroke:#000000;stroke-width:0.8;" x="351.490909" xlink:href="#m4abed1d830" y="576.72"/>
      </g>
     </g>
     <g id="line2d_6">
      <g>
       <use style="stroke:#000000;stroke-width:0.8;" x="351.490909" xlink:href="#mda35cc5777" y="77.76"/>
      </g>
     </g>
    </g>
    <g id="xtick_4">
     <g id="line2d_7">
      <g>
       <use style="stroke:#000000;stroke-width:0.8;" x="473.236364" xlink:href="#m4abed1d830" y="576.72"/>
      </g>
     </g>
     <g id="line2d_8">
      <g>
       <use style="stroke:#000000;stroke-width:0.8;" x="473.236364" xlink:href="#mda35cc5777" y="77.76"/>
      </g>
     </g>
    </g>
    <g id="xtick_5">
     <g id="line2d_9">
      <g>
       <use style="stroke:#000000;stroke-width:0.8;" x="594.981818" xlink:href="#m4abed1d830" y="576.72"/>
      </g>
     </g>
     <g id="line2d_10">
      <g>
       <use style="stroke:#000000;stroke-width:0.8;" x="594.981818" xlink:href="#mda35cc5777" y="77.76"/>
      </g>
     </g>
    </g>
    <g id="xtick_6">
     <g id="line2d_11">
      <g>
       <use style="stroke:#000000;stroke-width:0.8;" x="716.727273" xlink:href="#m4abed1d830" y="576.72"/>
      </g>
     </g>
     <g id="line2d_12">
      <g>
       <use style="stroke:#000000;stroke-width:0.8;" x="716.727273" xlink:href="#mda35cc5777" y="77.76"/>
      </g>
     </g>
    </g>
   </g>
   <g id="matplotlib.axis_2">
    <g id="ytick_1">
     <g id="line2d_13">
      <defs>
       <path d="M 0 0 
L -3.5 0 
" id="me91a084207" style="stroke:#000000;stroke-width:0.8;"/>
      </defs>
      <g>
       <use style="stroke:#000000;stroke-width:0.8;" x="108" xlink:href="#me91a084207" y="576.72"/>
      </g>
     </g>
     <g id="line2d_14">
      <defs>
       <path d="M 0 0 
L 3.5 0 
" id="m3e6d8e8324" style="stroke:#000000;stroke-width:0.8;"/>
      </defs>
      <g>
       <use style="stroke:#000000;stroke-width:0.8;" x="777.6" xlink:href="#m3e6d8e8324" y="576.72"/>
      </g>
     </g>
    </g>
    <g id="ytick_2">
     <g id="line2d_15">
      <g>
       <use style="stroke:#000000;stroke-width:0.8;" x="108" xlink:href="#me91a084207" y="505.44"/>
      </g>
     </g>
     <g id="line2d_16">
      <g>
       <use style="stroke:#000000;stroke-width:0.8;" x="777.6" xlink:href="#m3e6d8e8324" y="505.44"/>
      </g>
     </g>
    </g>
    <g id="ytick_3">
     <g id="line2d_17">
      <g>
       <use style="stroke:#000000;stroke-width:0.8;" x="108" xlink:href="#me91a084207" y="434.16"/>
      </g>
     </g>
     <g id="line2d_18">
      <g>
       <use style="stroke:#000000;stroke-width:0.8;" x="777.6" xlink:href="#m3e6d8e8324" y="434.16"/>
      </g>
     </g>
    </g>
    <g id="ytick_4">
     <g id="line2d_19">
      <g>
       <use style="stroke:#000000;stroke-width:0.8;" x="108" xlink:href="#me91a084207" y="362.88"/>
      </g>
     </g>
     <g id="line2d_20">
      <g>
       <use style="stroke:#000000;stroke-width:0.8;" x="777.6" xlink:href="#m3e6d8e8324" y="362.88"/>
      </g>
     </g>
    </g>
    <g id="ytick_5">
     <g id="line2d_21">
      <g>
       <use style="stroke:#000000;stroke-width:0.8;" x="108" xlink:href="#me91a084207" y="291.6"/>
      </g>
     </g>
     <g id="line2d_22">
      <g>
       <use style="stroke:#000000;stroke-width:0.8;" x="777.6" xlink:href="#m3e6d8e8324" y="291.6"/>
      </g>
     </g>
    </g>
    <g id="ytick_6">
     <g id="line2d_23">
      <g>
       <use style="stroke:#000000;stroke-width:0.8;" x="108" xlink:href="#me91a084207" y="220.32"/>
      </g>
     </g>
     <g id="line2d_24">
      <g>
       <use style="stroke:#000000;stroke-width:0.8;" x="777.6" xlink:href="#m3e6d8e8324" y="220.32"/>
      </g>
     </g>
    </g>
    <g id="ytick_7">
     <g id="line2d_25">
      <g>
       <use style="stroke:#000000;stroke-width:0.8;" x="108" xlink:href="#me91a084207" y="149.04"/>
      </g>
     </g>
     <g id="line2d_26">
      <g>
       <use style="stroke:#000000;stroke-width:0.8;" x="777.6" xlink:href="#m3e6d8e8324" y="149.04"/>
      </g>
     </g>
    </g>
    <g id="ytick_8">
     <g id="line2d_27">
      <g>
       <use style="stroke:#000000;stroke-width:0.8;" x="108" xlink:href="#me91a084207" y="77.76"/>
      </g>
     </g>
     <g id="line2d_28">
      <g>
       <use style="stroke:#000000;stroke-width:0.8;" x="777.6" xlink:href="#m3e6d8e8324" y="77.76"/>
      </g>
     </g>
    </g>
   </g>
   <g id="line2d_29">
    <path clip-path="url(#p5f83345e9a)" d="M 108 576.72 
L 128.839312 554.130392 
L 142.153317 540.077447 
L 151.415233 530.765385 
L 158.361671 524.292132 
L 163.571499 519.900136 
L 168.202457 516.455505 
L 172.254545 513.827666 
L 176.306634 511.552358 
L 179.779853 509.848339 
L 183.253071 508.337607 
L 187.30516 506.771016 
L 191.357248 505.373231 
L 197.145946 503.617111 
L 203.513514 501.901183 
L 212.77543 499.732425 
L 223.773956 497.498625 
L 235.930221 495.334107 
L 249.823096 493.144945 
L 267.189189 490.71018 
L 288.028501 488.087197 
L 313.498771 485.181308 
L 345.336609 481.865211 
L 385.278624 478.043438 
L 436.798034 473.49185 
L 503.368059 468.04359 
L 543.888943 464.899667 
L 590.777396 461.384418 
L 646.348894 457.356176 
L 686.290909 454.534224 
L 686.290909 454.534224 
" style="fill:none;stroke:#000000;stroke-linecap:square;stroke-width:1.5;"/>
   </g>
   <g id="line2d_30">
    <path clip-path="url(#p5f83345e9a)" d="M 108 576.72 
L 132.312531 550.224558 
L 146.784275 534.791828 
L 157.203931 524.059301 
L 165.886978 515.561299 
L 172.833415 509.189705 
L 179.200983 503.763478 
L 184.989681 499.177167 
L 190.778378 494.879682 
L 196.567076 490.80724 
L 202.934644 486.516298 
L 215.669779 478.307691 
L 231.878133 468.196011 
L 254.454054 454.387202 
L 288.607371 433.725402 
L 360.966093 390.243634 
L 513.208845 299.099244 
L 686.290909 195.626128 
L 686.290909 195.626128 
" style="fill:none;stroke:#000000;stroke-linecap:square;stroke-width:1.5;"/>
   </g>
   <g id="line2d_31">
    <path clip-path="url(#p5f83345e9a)" d="M 108 576.72 
L 128.839312 554.126966 
L 142.732187 539.467071 
L 151.415233 530.711933 
L 158.361671 524.175548 
L 164.150369 519.240778 
L 168.781327 515.725462 
L 173.412285 512.645212 
L 176.885504 510.597029 
L 180.937592 508.464822 
L 184.989681 506.555367 
L 189.041769 504.823406 
L 193.672727 503.009034 
L 202.355774 499.964527 
L 212.19656 496.873269 
L 223.195086 493.703884 
L 235.930221 490.27958 
L 251.559705 486.313168 
L 270.662408 481.687171 
L 294.396069 476.139537 
L 324.497297 469.282944 
L 386.436364 455.479699 
L 481.949877 434.51218 
L 631.87715 401.870029 
L 686.290909 390.061532 
L 686.290909 390.061532 
" style="fill:none;stroke:#000000;stroke-linecap:square;stroke-width:1.5;"/>
   </g>
   <g id="line2d_32">
    <path clip-path="url(#p5f83345e9a)" d="M 108 576.72 
L 128.839312 554.129875 
L 142.153317 540.074685 
L 151.415233 530.757253 
L 158.361671 524.274232 
L 163.571499 519.867954 
L 168.202457 516.4041 
L 172.254545 513.753573 
L 176.306634 511.450574 
L 179.779853 509.717839 
L 183.831941 507.931825 
L 187.884029 506.348892 
L 191.936118 504.926508 
L 200.040295 502.448305 
L 208.723342 500.155853 
L 219.142998 497.736309 
L 230.720393 495.332743 
L 244.613268 492.721638 
L 261.400491 489.829843 
L 282.239803 486.488197 
L 308.288943 482.539788 
L 341.284521 477.748171 
L 384.120885 471.7233 
L 440.271253 464.009433 
L 514.945455 453.924258 
L 615.668796 440.48754 
L 686.290909 431.131719 
L 686.290909 431.131719 
" style="fill:none;stroke:#000000;stroke-linecap:square;stroke-width:1.5;"/>
   </g>
   <g id="line2d_33">
    <path clip-path="url(#p5f83345e9a)" d="M 108 576.72 
L 503.672727 113.4 
L 503.672727 113.4 
" style="fill:none;stroke:#000000;stroke-linecap:square;stroke-width:1.5;"/>
   </g>
   <g id="patch_4">
    <path d="M 108 576.72 
L 108 77.76 
" style="fill:none;stroke:#000000;stroke-linecap:square;stroke-linejoin:miter;stroke-width:0.8;"/>
   </g>
   <g id="patch_5">
    <path d="M 777.6 576.72 
L 777.6 77.76 
" style="fill:none;stroke:#000000;stroke-linecap:square;stroke-linejoin:miter;stroke-width:0.8;"/>
   </g>
   <g id="patch_6">
    <path d="M 108 576.72 
L 777.6 576.72 
" style="fill:none;stroke:#000000;stroke-linecap:square;stroke-linejoin:miter;stroke-width:0.8;"/>
   </g>
   <g id="patch_7">
    <path d="M 108 77.76 
L 777.6 77.76 
" style="fill:none;stroke:#000000;stroke-linecap:square;stroke-linejoin:miter;stroke-width:0.8;"/>
   </g>
   <g id="text_1">
    <!-- $c_{T   }(m) = 45$ degree line -->
    <g transform="translate(534.109091 149.04)scale(0.22 -0.22)">
     <defs>
      <path d="M 2502 2431 
C 2381 2431 2323 2431 2234 2355 
C 2195 2323 2125 2227 2125 2125 
C 2125 1997 2221 1920 2342 1920 
C 2496 1920 2669 2044 2669 2292 
C 2669 2588 2374 2816 1933 2816 
C 1094 2816 256 1903 256 996 
C 256 441 602 -64 1254 -64 
C 2125 -64 2675 622 2675 706 
C 2675 744 2637 776 2611 776 
C 2592 776 2586 770 2528 713 
C 2118 162 1510 64 1267 64 
C 826 64 685 446 685 764 
C 685 988 794 1605 1024 2039 
C 1190 2338 1536 2682 1939 2682 
C 2022 2682 2374 2682 2502 2431 
z
" id="CMMI12-63" transform="scale(0.015625)"/>
      <path d="M 2669 3910 
C 2707 4064 2720 4121 2816 4147 
C 2867 4160 3078 4160 3213 4160 
C 3853 4160 4154 4134 4154 3634 
C 4154 3537 4128 3295 4090 3057 
L 4083 2980 
C 4083 2954 4109 2916 4147 2916 
C 4211 2916 4211 2948 4230 3050 
L 4416 4184 
C 4429 4243 4429 4256 4429 4275 
C 4429 4345 4390 4345 4262 4345 
L 762 4345 
C 614 4345 608 4339 570 4224 
L 179 3070 
C 173 3056 154 2986 154 2980 
C 154 2948 179 2916 218 2916 
C 269 2916 282 2941 307 3024 
C 576 3801 710 4160 1562 4160 
L 1990 4160 
C 2144 4160 2208 4160 2208 4089 
C 2208 4069 2208 4057 2176 3941 
L 1318 499 
C 1254 249 1242 185 563 185 
C 403 185 358 185 358 64 
C 358 0 429 0 461 0 
C 621 0 787 0 947 0 
L 1946 0 
C 2106 0 2278 0 2438 0 
C 2509 0 2573 0 2573 121 
C 2573 185 2528 185 2362 185 
C 1786 185 1786 243 1786 339 
C 1786 346 1786 391 1811 494 
L 2669 3910 
z
" id="CMMI12-54" transform="scale(0.015625)"/>
      <path d="M 1958 -1561 
C 1958 -1555 1958 -1542 1939 -1523 
C 1645 -1224 858 -407 858 1581 
C 858 3569 1632 4379 1946 4697 
C 1946 4704 1958 4717 1958 4736 
C 1958 4755 1939 4768 1914 4768 
C 1843 4768 1299 4296 986 3594 
C 666 2887 576 2199 576 1588 
C 576 1128 621 351 1005 -471 
C 1312 -1135 1837 -1600 1914 -1600 
C 1946 -1600 1958 -1587 1958 -1561 
z
" id="CMR17-28" transform="scale(0.015625)"/>
      <path d="M 1318 1871 
C 1331 1910 1491 2229 1728 2433 
C 1894 2586 2112 2689 2362 2689 
C 2618 2689 2707 2497 2707 2242 
C 2707 2203 2707 2076 2630 1775 
L 2470 1118 
C 2419 926 2298 453 2285 383 
C 2259 287 2221 121 2221 96 
C 2221 6 2291 -64 2387 -64 
C 2579 -64 2611 83 2669 313 
L 3053 1839 
C 3066 1890 3398 2689 4102 2689 
C 4358 2689 4448 2497 4448 2242 
C 4448 1884 4198 1188 4058 805 
C 4000 651 3968 568 3968 453 
C 3968 166 4166 -64 4474 -64 
C 5069 -64 5293 875 5293 913 
C 5293 945 5267 971 5229 971 
C 5171 971 5165 952 5133 843 
C 4986 332 4749 64 4493 64 
C 4429 64 4326 64 4326 269 
C 4326 436 4403 640 4429 710 
C 4544 1018 4832 1773 4832 2145 
C 4832 2528 4608 2816 4122 2816 
C 3693 2816 3347 2574 3091 2197 
C 3072 2542 2861 2816 2381 2816 
C 1811 2816 1510 2415 1395 2255 
C 1376 2618 1114 2816 832 2816 
C 646 2816 499 2727 378 2484 
C 262 2254 173 1865 173 1839 
C 173 1814 198 1782 243 1782 
C 294 1782 301 1788 339 1935 
C 435 2312 557 2689 813 2689 
C 960 2689 1011 2586 1011 2395 
C 1011 2254 947 2005 902 1807 
L 723 1118 
C 698 996 627 709 595 594 
C 550 428 480 128 480 96 
C 480 6 550 -64 646 -64 
C 723 -64 813 -26 864 70 
C 877 102 934 326 966 453 
L 1107 1028 
L 1318 1871 
z
" id="CMMI12-6d" transform="scale(0.015625)"/>
      <path d="M 1683 1581 
C 1683 2040 1638 2817 1254 3639 
C 947 4303 422 4768 346 4768 
C 326 4768 301 4761 301 4729 
C 301 4717 307 4710 314 4697 
C 621 4378 1402 3568 1402 1584 
C 1402 -407 627 -1217 314 -1537 
C 307 -1549 301 -1556 301 -1568 
C 301 -1600 326 -1600 346 -1600 
C 416 -1600 960 -1128 1274 -426 
C 1594 281 1683 969 1683 1581 
z
" id="CMR17-29" transform="scale(0.015625)"/>
      <path d="M 4115 2017 
C 4211 2017 4307 2017 4307 2125 
C 4307 2240 4198 2240 4090 2240 
L 512 2240 
C 403 2240 294 2240 294 2125 
C 294 2017 390 2017 486 2017 
L 4115 2017 
z
M 4090 896 
C 4198 896 4307 896 4307 1011 
C 4307 1119 4211 1119 4115 1119 
L 486 1119 
C 390 1119 294 1119 294 1011 
C 294 896 403 896 512 896 
L 4090 896 
z
" id="CMR17-3d" transform="scale(0.015625)"/>
      <path d="M 2150 4122 
C 2150 4256 2144 4256 2029 4256 
L 128 1254 
L 128 1088 
L 1779 1088 
L 1779 457 
C 1779 224 1766 160 1318 160 
L 1197 160 
L 1197 0 
C 1402 0 1747 0 1965 0 
C 2182 0 2528 0 2733 0 
L 2733 160 
L 2611 160 
C 2163 160 2150 224 2150 457 
L 2150 1088 
L 2803 1088 
L 2803 1254 
L 2150 1254 
L 2150 4122 
z
M 1798 3703 
L 1798 1254 
L 256 1254 
L 1798 3703 
z
" id="CMR17-34" transform="scale(0.015625)"/>
      <path d="M 730 3692 
C 794 3666 1056 3584 1325 3584 
C 1920 3584 2246 3911 2432 4100 
C 2432 4157 2432 4192 2394 4192 
C 2387 4192 2374 4192 2323 4163 
C 2099 4058 1837 3973 1517 3973 
C 1325 3973 1037 3999 723 4139 
C 653 4171 640 4171 634 4171 
C 602 4171 595 4164 595 4037 
L 595 2203 
C 595 2089 595 2057 659 2057 
C 691 2057 704 2070 736 2114 
C 941 2401 1222 2522 1542 2522 
C 1766 2522 2246 2382 2246 1289 
C 2246 1085 2246 715 2054 421 
C 1894 159 1645 25 1370 25 
C 947 25 518 320 403 814 
C 429 807 480 795 506 795 
C 589 795 749 840 749 1038 
C 749 1210 627 1280 506 1280 
C 358 1280 262 1190 262 1011 
C 262 454 704 -128 1382 -128 
C 2042 -128 2669 440 2669 1264 
C 2669 2030 2170 2624 1549 2624 
C 1222 2624 947 2503 730 2274 
L 730 3692 
z
" id="CMR17-35" transform="scale(0.015625)"/>
      <path d="M 1882 4397 
L 1882 4256 
L 1952 4256 
C 2150 4256 2259 4198 2259 3955 
L 2253 2323 
C 2131 2617 1766 2816 1459 2816 
C 710 2816 269 2052 269 1373 
C 269 731 653 0 1338 0 
L 1395 0 
C 1741 0 2118 204 2246 507 
L 2253 0 
L 2893 0 
L 2893 160 
L 2816 160 
C 2605 160 2515 237 2515 461 
L 2515 4467 
L 1882 4397 
z
M 595 1245 
L 595 1341 
C 595 1783 659 2310 1056 2593 
C 1190 2689 1344 2740 1498 2740 
C 1862 2740 2259 2393 2259 2021 
C 2259 1951 2253 1874 2253 1804 
L 2253 770 
C 2253 424 1811 58 1440 58 
C 947 58 678 558 621 981 
C 608 1072 608 1155 595 1245 
z
" id="SFRM3583-64" transform="scale(0.015625)"/>
      <path d="M 563 1524 
L 2246 1524 
C 2259 1524 2285 1517 2310 1517 
C 2355 1517 2374 1543 2374 1581 
C 2374 2154 2099 2816 1382 2816 
C 614 2816 237 2031 237 1405 
C 237 778 589 70 1350 -26 
C 1376 -26 1402 -32 1427 -32 
C 1869 -32 2208 273 2355 686 
C 2362 705 2368 730 2368 749 
C 2368 768 2362 787 2336 787 
C 2272 787 2266 686 2246 628 
C 2118 324 1843 57 1485 57 
C 1216 57 960 210 813 425 
C 576 742 563 1149 563 1524 
z
M 570 1600 
C 582 2103 832 2740 1370 2740 
C 1818 2740 2010 2264 2061 1890 
C 2067 1793 2067 1697 2080 1600 
L 570 1600 
z
" id="SFRM3583-65" transform="scale(0.015625)"/>
      <path d="M 659 1252 
L 659 1246 
C 531 1119 474 909 474 731 
C 474 503 570 358 749 218 
C 448 167 154 -130 154 -457 
C 154 -1004 896 -1248 1421 -1248 
C 1933 -1248 2701 -1055 2701 -419 
C 2701 -66 2464 204 2138 307 
C 1907 384 1658 384 1414 384 
L 1222 384 
C 1165 384 1107 384 1050 384 
C 742 384 582 580 582 848 
C 582 965 646 1200 710 1200 
L 717 1200 
C 755 1200 870 1106 947 1075 
C 1050 1031 1158 1012 1274 1012 
C 1805 1012 2144 1462 2144 1918 
C 2144 2125 2067 2375 1914 2525 
L 1914 2532 
C 2086 2679 2266 2804 2490 2804 
C 2534 2804 2579 2794 2624 2771 
C 2586 2744 2554 2704 2554 2651 
C 2554 2584 2611 2537 2669 2537 
C 2746 2537 2784 2592 2784 2654 
C 2784 2818 2630 2880 2502 2880 
C 2291 2880 2086 2781 1920 2634 
C 1907 2620 1882 2599 1862 2599 
C 1824 2599 1696 2706 1613 2749 
C 1504 2793 1389 2819 1274 2819 
C 742 2819 397 2356 397 1899 
C 397 1683 480 1398 659 1252 
z
M 358 -509 
L 358 -458 
C 358 -219 506 18 717 115 
C 826 167 941 167 1062 167 
L 1594 167 
C 1958 167 2502 39 2502 -460 
C 2502 -960 1850 -1172 1434 -1172 
C 1005 -1172 422 -972 358 -509 
z
M 710 1787 
L 710 1868 
C 710 2212 787 2737 1267 2737 
C 1683 2737 1830 2324 1830 1937 
C 1830 1669 1805 1319 1523 1163 
C 1446 1113 1357 1088 1274 1088 
C 896 1088 749 1450 710 1787 
z
" id="SFRM3583-67" transform="scale(0.015625)"/>
      <path d="M 288 2746 
L 288 2605 
L 352 2605 
C 557 2605 666 2560 666 2275 
L 666 361 
C 666 154 512 141 288 141 
L 288 0 
L 1389 0 
L 1389 141 
L 1261 141 
C 1075 141 922 160 922 407 
L 922 1350 
C 922 1900 1037 2740 1658 2740 
C 1728 2740 1798 2721 1862 2695 
C 1786 2663 1722 2611 1722 2520 
C 1722 2430 1792 2339 1901 2339 
C 1997 2339 2074 2423 2074 2519 
C 2074 2732 1837 2816 1664 2816 
C 1274 2816 979 2435 922 2080 
L 915 2816 
L 288 2746 
z
" id="SFRM3583-72" transform="scale(0.015625)"/>
      <path d="M 307 4365 
L 307 4224 
L 384 4224 
C 608 4224 678 4121 678 3911 
L 678 372 
C 678 180 595 141 307 141 
L 307 0 
L 1306 0 
L 1306 141 
L 1203 141 
C 1062 141 934 160 934 365 
L 934 4435 
L 307 4365 
z
" id="SFRM3583-6c" transform="scale(0.015625)"/>
      <path d="M 326 2735 
L 326 2593 
L 358 2593 
C 563 2593 678 2561 678 2251 
L 678 360 
C 678 154 531 141 307 141 
L 307 0 
L 1274 0 
L 1274 141 
L 1190 141 
C 1056 141 934 154 934 373 
L 934 2805 
L 326 2735 
z
M 698 4160 
C 595 4160 531 4045 531 3962 
C 531 3866 608 3751 730 3751 
C 858 3751 934 3857 934 3952 
C 934 4046 858 4160 736 4160 
C 723 4160 710 4160 698 4160 
z
" id="SFRM3583-69" transform="scale(0.015625)"/>
      <path d="M 301 2746 
L 301 2605 
L 365 2605 
C 570 2605 678 2560 678 2275 
L 678 361 
C 678 154 525 141 301 141 
L 301 0 
L 1318 0 
L 1318 141 
L 1229 141 
C 1082 141 941 160 941 361 
L 941 1777 
C 979 2217 1203 2740 1709 2740 
C 2112 2740 2266 2417 2266 1951 
L 2266 361 
C 2266 154 2112 141 1888 141 
L 1888 0 
L 2906 0 
L 2906 141 
L 2803 141 
C 2656 141 2528 160 2528 386 
L 2528 1885 
C 2528 2299 2451 2816 1760 2816 
C 1414 2816 1178 2629 1024 2352 
C 986 2281 947 2204 934 2126 
L 928 2816 
L 301 2746 
z
" id="SFRM3583-6e" transform="scale(0.015625)"/>
     </defs>
     <use transform="scale(0.996264)" xlink:href="#CMMI12-63"/>
     <use transform="translate(41.983234 -14.943915)scale(0.697382)" xlink:href="#CMMI12-54"/>
     <use transform="translate(91.987688 0)scale(0.996264)" xlink:href="#CMR17-28"/>
     <use transform="translate(127.268456 0)scale(0.996264)" xlink:href="#CMMI12-6d"/>
     <use transform="translate(212.59568 0)scale(0.996264)" xlink:href="#CMR17-29"/>
     <use transform="translate(275.550457 0)scale(0.996264)" xlink:href="#CMR17-3d"/>
     <use transform="translate(374.939254 0)scale(0.996264)" xlink:href="#CMR17-34"/>
     <use transform="translate(420.629731 0)scale(0.996264)" xlink:href="#CMR17-35"/>
     <use transform="translate(496.018501 0)scale(0.996264)" xlink:href="#SFRM3583-64"/>
     <use transform="translate(545.556929 0)scale(0.996264)" xlink:href="#SFRM3583-65"/>
     <use transform="translate(585.175328 0)scale(0.996264)" xlink:href="#SFRM3583-67"/>
     <use transform="translate(629.753795 0)scale(0.996264)" xlink:href="#SFRM3583-72"/>
     <use transform="translate(664.412141 0)scale(0.996264)" xlink:href="#SFRM3583-65"/>
     <use transform="translate(704.03054 0)scale(0.996264)" xlink:href="#SFRM3583-65"/>
     <use transform="translate(773.347232 0)scale(0.996264)" xlink:href="#SFRM3583-6c"/>
     <use transform="translate(798.085564 0)scale(0.996264)" xlink:href="#SFRM3583-69"/>
     <use transform="translate(822.823895 0)scale(0.996264)" xlink:href="#SFRM3583-6e"/>
     <use transform="translate(872.362324 0)scale(0.996264)" xlink:href="#SFRM3583-65"/>
    </g>
   </g>
   <g id="text_2">
    <!-- $c_{T-1 }(m)$ -->
    <g transform="translate(692.378182 198.936)scale(0.22 -0.22)">
     <defs>
      <path d="M 4218 1472 
C 4326 1472 4442 1472 4442 1600 
C 4442 1728 4326 1728 4218 1728 
L 755 1728 
C 646 1728 531 1728 531 1600 
C 531 1472 646 1472 755 1472 
L 4218 1472 
z
" id="CMSY10-0" transform="scale(0.015625)"/>
      <path d="M 1702 4058 
C 1702 4192 1696 4192 1606 4192 
C 1357 3916 979 3827 621 3827 
C 602 3827 570 3827 563 3808 
C 557 3795 557 3782 557 3648 
C 755 3648 1088 3686 1344 3839 
L 1344 461 
C 1344 236 1331 160 781 160 
L 589 160 
L 589 0 
C 896 0 1216 0 1523 0 
C 1830 0 2150 0 2458 0 
L 2458 160 
L 2266 160 
C 1715 160 1702 230 1702 458 
L 1702 4058 
z
" id="CMR17-31" transform="scale(0.015625)"/>
     </defs>
     <use transform="scale(0.996264)" xlink:href="#CMMI12-63"/>
     <use transform="translate(41.983234 -14.943915)scale(0.697382)" xlink:href="#CMMI12-54"/>
     <use transform="translate(91.489556 -14.943915)scale(0.697382)" xlink:href="#CMSY10-0"/>
     <use transform="translate(145.730549 -14.943915)scale(0.697382)" xlink:href="#CMR17-31"/>
     <use transform="translate(178.211863 0)scale(0.996264)" xlink:href="#CMR17-28"/>
     <use transform="translate(213.492631 0)scale(0.996264)" xlink:href="#CMMI12-6d"/>
     <use transform="translate(298.819855 0)scale(0.996264)" xlink:href="#CMR17-29"/>
    </g>
   </g>
   <g id="text_3">
    <!-- $c_{T-5 }(m)$ -->
    <g transform="translate(692.378182 391.392)scale(0.22 -0.22)">
     <use transform="scale(0.996264)" xlink:href="#CMMI12-63"/>
     <use transform="translate(41.983234 -14.943915)scale(0.697382)" xlink:href="#CMMI12-54"/>
     <use transform="translate(91.489556 -14.943915)scale(0.697382)" xlink:href="#CMSY10-0"/>
     <use transform="translate(145.730549 -14.943915)scale(0.697382)" xlink:href="#CMR17-35"/>
     <use transform="translate(178.211863 0)scale(0.996264)" xlink:href="#CMR17-28"/>
     <use transform="translate(213.492631 0)scale(0.996264)" xlink:href="#CMMI12-6d"/>
     <use transform="translate(298.819855 0)scale(0.996264)" xlink:href="#CMR17-29"/>
    </g>
   </g>
   <g id="text_4">
    <!-- $c_{T-10}(m)$ -->
    <g transform="translate(692.378182 427.032)scale(0.22 -0.22)">
     <defs>
      <path d="M 2688 2025 
C 2688 2416 2682 3080 2413 3591 
C 2176 4039 1798 4198 1466 4198 
C 1158 4198 768 4058 525 3597 
C 269 3118 243 2524 243 2025 
C 243 1661 250 1106 448 619 
C 723 -39 1216 -128 1466 -128 
C 1760 -128 2208 -7 2470 600 
C 2662 1042 2688 1559 2688 2025 
z
M 1466 -26 
C 1056 -26 813 325 723 812 
C 653 1188 653 1738 653 2096 
C 653 2588 653 2997 736 3387 
C 858 3929 1216 4096 1466 4096 
C 1728 4096 2067 3923 2189 3400 
C 2272 3036 2278 2607 2278 2096 
C 2278 1680 2278 1169 2202 792 
C 2067 95 1690 -26 1466 -26 
z
" id="CMR17-30" transform="scale(0.015625)"/>
     </defs>
     <use transform="scale(0.996264)" xlink:href="#CMMI12-63"/>
     <use transform="translate(41.983234 -14.943915)scale(0.697382)" xlink:href="#CMMI12-54"/>
     <use transform="translate(91.489556 -14.943915)scale(0.697382)" xlink:href="#CMSY10-0"/>
     <use transform="translate(145.730549 -14.943915)scale(0.697382)" xlink:href="#CMR17-31"/>
     <use transform="translate(177.713731 -14.943915)scale(0.697382)" xlink:href="#CMR17-30"/>
     <use transform="translate(210.195045 0)scale(0.996264)" xlink:href="#CMR17-28"/>
     <use transform="translate(245.475813 0)scale(0.996264)" xlink:href="#CMMI12-6d"/>
     <use transform="translate(330.803037 0)scale(0.996264)" xlink:href="#CMR17-29"/>
    </g>
   </g>
   <g id="text_5">
    <!-- $c(m)       $ -->
    <g transform="translate(692.378182 455.544)scale(0.22 -0.22)">
     <use transform="scale(0.996264)" xlink:href="#CMMI12-63"/>
     <use transform="translate(41.983234 0)scale(0.996264)" xlink:href="#CMR17-28"/>
     <use transform="translate(77.264001 0)scale(0.996264)" xlink:href="#CMMI12-6d"/>
     <use transform="translate(162.591226 0)scale(0.996264)" xlink:href="#CMR17-29"/>
    </g>
   </g>
   <g id="text_6">
    <!-- $c$ -->
    <g transform="translate(108 74.196)scale(0.26 -0.26)">
     <use transform="scale(0.996264)" xlink:href="#CMMI12-63"/>
    </g>
   </g>
   <g id="text_7">
    <!-- $m$ -->
    <g transform="translate(783.687273 576.72)scale(0.26 -0.26)">
     <use transform="scale(0.996264)" xlink:href="#CMMI12-6d"/>
    </g>
   </g>
  </g>
 </g>
 <defs>
  <clipPath id="p5f83345e9a">
   <rect height="498.96" width="669.6" x="108" y="77.76"/>
  </clipPath>
 </defs>
</svg>
