<?xml version="1.0" encoding="utf-8" standalone="no"?>
<!DOCTYPE svg PUBLIC "-//W3C//DTD SVG 1.1//EN"
  "http://www.w3.org/Graphics/SVG/1.1/DTD/svg11.dtd">
<svg height="576pt" version="1.1" viewBox="0 0 864 576" width="864pt" xmlns="http://www.w3.org/2000/svg" xmlns:xlink="http://www.w3.org/1999/xlink">
 <metadata>
  <rdf:RDF xmlns:cc="http://creativecommons.org/ns#" xmlns:dc="http://purl.org/dc/elements/1.1/" xmlns:rdf="http://www.w3.org/1999/02/22-rdf-syntax-ns#">
   <cc:Work>
    <dc:type rdf:resource="http://purl.org/dc/dcmitype/StillImage"/>
    <dc:format>image/svg+xml</dc:format>
    <dc:creator>
     <cc:Agent>
      <dc:title>Matplotlib v3.4.2, https://matplotlib.org/</dc:title>
     </cc:Agent>
    </dc:creator>
   </cc:Work>
  </rdf:RDF>
 </metadata>
 <defs>
  <style type="text/css">*{stroke-linecap:butt;stroke-linejoin:round;}</style>
 </defs>
 <g id="figure_1">
  <g id="patch_1">
   <path d="M 0 576 
L 864 576 
L 864 0 
L 0 0 
z
" style="fill:#ffffff;"/>
  </g>
  <g id="axes_1">
   <g id="patch_2">
    <path d="M 108 512.64 
L 777.6 512.64 
L 777.6 69.12 
L 108 69.12 
z
" style="fill:#ffffff;"/>
   </g>
   <g id="matplotlib.axis_1">
    <g id="xtick_1">
     <g id="line2d_1">
      <defs>
       <path d="M 0 0 
L 0 3.5 
" id="m4abed1d830" style="stroke:#000000;stroke-width:0.8;"/>
      </defs>
      <g>
       <use style="stroke:#000000;stroke-width:0.8;" x="108" xlink:href="#m4abed1d830" y="512.64"/>
      </g>
     </g>
     <g id="line2d_2">
      <defs>
       <path d="M 0 0 
L 0 -3.5 
" id="mda35cc5777" style="stroke:#000000;stroke-width:0.8;"/>
      </defs>
      <g>
       <use style="stroke:#000000;stroke-width:0.8;" x="108" xlink:href="#mda35cc5777" y="69.12"/>
      </g>
     </g>
     <g id="text_1">
      <!-- $\mathdefault{1.1}$ -->
      <g transform="translate(94.967406 534.733242)scale(0.22 -0.22)">
       <defs>
        <path d="M 1702 4058 
C 1702 4192 1696 4192 1606 4192 
C 1357 3916 979 3827 621 3827 
C 602 3827 570 3827 563 3808 
C 557 3795 557 3782 557 3648 
C 755 3648 1088 3686 1344 3839 
L 1344 461 
C 1344 236 1331 160 781 160 
L 589 160 
L 589 0 
C 896 0 1216 0 1523 0 
C 1830 0 2150 0 2458 0 
L 2458 160 
L 2266 160 
C 1715 160 1702 230 1702 458 
L 1702 4058 
z
" id="CMR17-31" transform="scale(0.015625)"/>
        <path d="M 1178 307 
C 1178 492 1024 619 870 619 
C 685 619 557 466 557 313 
C 557 128 710 0 864 0 
C 1050 0 1178 153 1178 307 
z
" id="CMMI12-3a" transform="scale(0.015625)"/>
       </defs>
       <use transform="scale(0.996264)" xlink:href="#CMR17-31"/>
       <use transform="translate(45.690477 0)scale(0.996264)" xlink:href="#CMMI12-3a"/>
       <use transform="translate(72.787654 0)scale(0.996264)" xlink:href="#CMR17-31"/>
      </g>
     </g>
    </g>
    <g id="xtick_2">
     <g id="line2d_3">
      <g>
       <use style="stroke:#000000;stroke-width:0.8;" x="184.090909" xlink:href="#m4abed1d830" y="512.64"/>
      </g>
     </g>
     <g id="line2d_4">
      <g>
       <use style="stroke:#000000;stroke-width:0.8;" x="184.090909" xlink:href="#mda35cc5777" y="69.12"/>
      </g>
     </g>
     <g id="text_2">
      <!-- $\mathdefault{1.2}$ -->
      <g transform="translate(171.058315 534.733242)scale(0.22 -0.22)">
       <defs>
        <path d="M 2669 989 
L 2554 989 
C 2490 536 2438 459 2413 420 
C 2381 369 1920 369 1830 369 
L 602 369 
C 832 619 1280 1072 1824 1597 
C 2214 1967 2669 2402 2669 3035 
C 2669 3790 2067 4224 1395 4224 
C 691 4224 262 3604 262 3030 
C 262 2780 448 2748 525 2748 
C 589 2748 781 2787 781 3010 
C 781 3207 614 3264 525 3264 
C 486 3264 448 3258 422 3245 
C 544 3790 915 4058 1306 4058 
C 1862 4058 2227 3617 2227 3035 
C 2227 2479 1901 2000 1536 1584 
L 262 146 
L 262 0 
L 2515 0 
L 2669 989 
z
" id="CMR17-32" transform="scale(0.015625)"/>
       </defs>
       <use transform="scale(0.996264)" xlink:href="#CMR17-31"/>
       <use transform="translate(45.690477 0)scale(0.996264)" xlink:href="#CMMI12-3a"/>
       <use transform="translate(72.787654 0)scale(0.996264)" xlink:href="#CMR17-32"/>
      </g>
     </g>
    </g>
    <g id="xtick_3">
     <g id="line2d_5">
      <g>
       <use style="stroke:#000000;stroke-width:0.8;" x="260.181818" xlink:href="#m4abed1d830" y="512.64"/>
      </g>
     </g>
     <g id="line2d_6">
      <g>
       <use style="stroke:#000000;stroke-width:0.8;" x="260.181818" xlink:href="#mda35cc5777" y="69.12"/>
      </g>
     </g>
     <g id="text_3">
      <!-- $\mathdefault{1.3}$ -->
      <g transform="translate(247.149224 534.733242)scale(0.22 -0.22)">
       <defs>
        <path d="M 1414 2157 
C 1984 2157 2234 1662 2234 1090 
C 2234 320 1824 25 1453 25 
C 1114 25 563 194 390 693 
C 422 680 454 680 486 680 
C 640 680 755 782 755 948 
C 755 1133 614 1216 486 1216 
C 378 1216 211 1165 211 926 
C 211 335 787 -128 1466 -128 
C 2176 -128 2720 430 2720 1085 
C 2720 1707 2208 2157 1600 2227 
C 2086 2328 2554 2756 2554 3329 
C 2554 3820 2048 4179 1472 4179 
C 890 4179 378 3829 378 3329 
C 378 3110 544 3072 627 3072 
C 762 3072 877 3155 877 3321 
C 877 3486 762 3569 627 3569 
C 602 3569 570 3569 544 3557 
C 730 3959 1235 4032 1459 4032 
C 1683 4032 2106 3925 2106 3320 
C 2106 3143 2080 2828 1862 2550 
C 1670 2304 1453 2304 1242 2284 
C 1210 2284 1062 2269 1037 2269 
C 992 2263 966 2257 966 2208 
C 966 2163 973 2157 1101 2157 
L 1414 2157 
z
" id="CMR17-33" transform="scale(0.015625)"/>
       </defs>
       <use transform="scale(0.996264)" xlink:href="#CMR17-31"/>
       <use transform="translate(45.690477 0)scale(0.996264)" xlink:href="#CMMI12-3a"/>
       <use transform="translate(72.787654 0)scale(0.996264)" xlink:href="#CMR17-33"/>
      </g>
     </g>
    </g>
    <g id="xtick_4">
     <g id="line2d_7">
      <g>
       <use style="stroke:#000000;stroke-width:0.8;" x="336.272727" xlink:href="#m4abed1d830" y="512.64"/>
      </g>
     </g>
     <g id="line2d_8">
      <g>
       <use style="stroke:#000000;stroke-width:0.8;" x="336.272727" xlink:href="#mda35cc5777" y="69.12"/>
      </g>
     </g>
     <g id="text_4">
      <!-- $\mathdefault{1.4}$ -->
      <g transform="translate(323.240133 534.733242)scale(0.22 -0.22)">
       <defs>
        <path d="M 2150 4122 
C 2150 4256 2144 4256 2029 4256 
L 128 1254 
L 128 1088 
L 1779 1088 
L 1779 457 
C 1779 224 1766 160 1318 160 
L 1197 160 
L 1197 0 
C 1402 0 1747 0 1965 0 
C 2182 0 2528 0 2733 0 
L 2733 160 
L 2611 160 
C 2163 160 2150 224 2150 457 
L 2150 1088 
L 2803 1088 
L 2803 1254 
L 2150 1254 
L 2150 4122 
z
M 1798 3703 
L 1798 1254 
L 256 1254 
L 1798 3703 
z
" id="CMR17-34" transform="scale(0.015625)"/>
       </defs>
       <use transform="scale(0.996264)" xlink:href="#CMR17-31"/>
       <use transform="translate(45.690477 0)scale(0.996264)" xlink:href="#CMMI12-3a"/>
       <use transform="translate(72.787654 0)scale(0.996264)" xlink:href="#CMR17-34"/>
      </g>
     </g>
    </g>
    <g id="xtick_5">
     <g id="line2d_9">
      <g>
       <use style="stroke:#000000;stroke-width:0.8;" x="412.363636" xlink:href="#m4abed1d830" y="512.64"/>
      </g>
     </g>
     <g id="line2d_10">
      <g>
       <use style="stroke:#000000;stroke-width:0.8;" x="412.363636" xlink:href="#mda35cc5777" y="69.12"/>
      </g>
     </g>
     <g id="text_5">
      <!-- $\mathdefault{1.5}$ -->
      <g transform="translate(399.331042 534.733242)scale(0.22 -0.22)">
       <defs>
        <path d="M 730 3692 
C 794 3666 1056 3584 1325 3584 
C 1920 3584 2246 3911 2432 4100 
C 2432 4157 2432 4192 2394 4192 
C 2387 4192 2374 4192 2323 4163 
C 2099 4058 1837 3973 1517 3973 
C 1325 3973 1037 3999 723 4139 
C 653 4171 640 4171 634 4171 
C 602 4171 595 4164 595 4037 
L 595 2203 
C 595 2089 595 2057 659 2057 
C 691 2057 704 2070 736 2114 
C 941 2401 1222 2522 1542 2522 
C 1766 2522 2246 2382 2246 1289 
C 2246 1085 2246 715 2054 421 
C 1894 159 1645 25 1370 25 
C 947 25 518 320 403 814 
C 429 807 480 795 506 795 
C 589 795 749 840 749 1038 
C 749 1210 627 1280 506 1280 
C 358 1280 262 1190 262 1011 
C 262 454 704 -128 1382 -128 
C 2042 -128 2669 440 2669 1264 
C 2669 2030 2170 2624 1549 2624 
C 1222 2624 947 2503 730 2274 
L 730 3692 
z
" id="CMR17-35" transform="scale(0.015625)"/>
       </defs>
       <use transform="scale(0.996264)" xlink:href="#CMR17-31"/>
       <use transform="translate(45.690477 0)scale(0.996264)" xlink:href="#CMMI12-3a"/>
       <use transform="translate(72.787654 0)scale(0.996264)" xlink:href="#CMR17-35"/>
      </g>
     </g>
    </g>
    <g id="xtick_6">
     <g id="line2d_11">
      <g>
       <use style="stroke:#000000;stroke-width:0.8;" x="488.454545" xlink:href="#m4abed1d830" y="512.64"/>
      </g>
     </g>
     <g id="line2d_12">
      <g>
       <use style="stroke:#000000;stroke-width:0.8;" x="488.454545" xlink:href="#mda35cc5777" y="69.12"/>
      </g>
     </g>
     <g id="text_6">
      <!-- $\mathdefault{1.6}$ -->
      <g transform="translate(475.421951 534.733242)scale(0.22 -0.22)">
       <defs>
        <path d="M 678 2176 
C 678 3690 1395 4032 1811 4032 
C 1946 4032 2272 4009 2400 3776 
C 2298 3776 2106 3776 2106 3553 
C 2106 3381 2246 3323 2336 3323 
C 2394 3323 2566 3348 2566 3560 
C 2566 3954 2246 4179 1805 4179 
C 1043 4179 243 3390 243 1984 
C 243 253 966 -128 1478 -128 
C 2099 -128 2688 427 2688 1283 
C 2688 2081 2170 2662 1517 2662 
C 1126 2662 838 2407 678 1960 
L 678 2176 
z
M 1478 25 
C 691 25 691 1200 691 1436 
C 691 1896 909 2560 1504 2560 
C 1613 2560 1926 2560 2138 2120 
C 2253 1870 2253 1609 2253 1289 
C 2253 944 2253 690 2118 434 
C 1978 171 1773 25 1478 25 
z
" id="CMR17-36" transform="scale(0.015625)"/>
       </defs>
       <use transform="scale(0.996264)" xlink:href="#CMR17-31"/>
       <use transform="translate(45.690477 0)scale(0.996264)" xlink:href="#CMMI12-3a"/>
       <use transform="translate(72.787654 0)scale(0.996264)" xlink:href="#CMR17-36"/>
      </g>
     </g>
    </g>
    <g id="xtick_7">
     <g id="line2d_13">
      <g>
       <use style="stroke:#000000;stroke-width:0.8;" x="564.545455" xlink:href="#m4abed1d830" y="512.64"/>
      </g>
     </g>
     <g id="line2d_14">
      <g>
       <use style="stroke:#000000;stroke-width:0.8;" x="564.545455" xlink:href="#mda35cc5777" y="69.12"/>
      </g>
     </g>
     <g id="text_7">
      <!-- $\mathdefault{1.7}$ -->
      <g transform="translate(551.51286 534.733242)scale(0.22 -0.22)">
       <defs>
        <path d="M 2886 3941 
L 2886 4081 
L 1382 4081 
C 634 4081 621 4165 595 4288 
L 480 4288 
L 294 3094 
L 410 3094 
C 429 3215 474 3540 550 3661 
C 589 3712 1062 3712 1171 3712 
L 2579 3712 
L 1869 2661 
C 1395 1954 1069 999 1069 165 
C 1069 89 1069 -128 1299 -128 
C 1530 -128 1530 89 1530 171 
L 1530 465 
C 1530 1508 1709 2196 2003 2636 
L 2886 3941 
z
" id="CMR17-37" transform="scale(0.015625)"/>
       </defs>
       <use transform="scale(0.996264)" xlink:href="#CMR17-31"/>
       <use transform="translate(45.690477 0)scale(0.996264)" xlink:href="#CMMI12-3a"/>
       <use transform="translate(72.787654 0)scale(0.996264)" xlink:href="#CMR17-37"/>
      </g>
     </g>
    </g>
    <g id="xtick_8">
     <g id="line2d_15">
      <g>
       <use style="stroke:#000000;stroke-width:0.8;" x="640.636364" xlink:href="#m4abed1d830" y="512.64"/>
      </g>
     </g>
     <g id="line2d_16">
      <g>
       <use style="stroke:#000000;stroke-width:0.8;" x="640.636364" xlink:href="#mda35cc5777" y="69.12"/>
      </g>
     </g>
     <g id="text_8">
      <!-- $\mathdefault{1.8}$ -->
      <g transform="translate(627.603769 534.733242)scale(0.22 -0.22)">
       <defs>
        <path d="M 1741 2264 
C 2144 2467 2554 2773 2554 3263 
C 2554 3841 1990 4179 1472 4179 
C 890 4179 378 3759 378 3180 
C 378 3021 416 2747 666 2505 
C 730 2442 998 2251 1171 2130 
C 883 1983 211 1634 211 934 
C 211 279 838 -128 1459 -128 
C 2144 -128 2720 362 2720 1010 
C 2720 1590 2330 1857 2074 2029 
L 1741 2264 
z
M 902 2822 
C 851 2854 595 3051 595 3351 
C 595 3739 998 4032 1459 4032 
C 1965 4032 2336 3676 2336 3262 
C 2336 2669 1670 2331 1638 2331 
C 1632 2331 1626 2331 1574 2370 
L 902 2822 
z
M 2080 1519 
C 2176 1449 2483 1240 2483 851 
C 2483 381 2010 25 1472 25 
C 890 25 448 438 448 940 
C 448 1443 838 1862 1280 2060 
L 2080 1519 
z
" id="CMR17-38" transform="scale(0.015625)"/>
       </defs>
       <use transform="scale(0.996264)" xlink:href="#CMR17-31"/>
       <use transform="translate(45.690477 0)scale(0.996264)" xlink:href="#CMMI12-3a"/>
       <use transform="translate(72.787654 0)scale(0.996264)" xlink:href="#CMR17-38"/>
      </g>
     </g>
    </g>
    <g id="xtick_9">
     <g id="line2d_17">
      <g>
       <use style="stroke:#000000;stroke-width:0.8;" x="716.727273" xlink:href="#m4abed1d830" y="512.64"/>
      </g>
     </g>
     <g id="line2d_18">
      <g>
       <use style="stroke:#000000;stroke-width:0.8;" x="716.727273" xlink:href="#mda35cc5777" y="69.12"/>
      </g>
     </g>
     <g id="text_9">
      <!-- $\mathdefault{1.9}$ -->
      <g transform="translate(703.694678 534.733242)scale(0.22 -0.22)">
       <defs>
        <path d="M 2253 1864 
C 2253 464 1670 31 1190 31 
C 1043 31 685 31 538 294 
C 704 268 826 357 826 518 
C 826 692 685 749 595 749 
C 538 749 365 723 365 506 
C 365 71 742 -128 1203 -128 
C 1939 -128 2688 674 2688 2073 
C 2688 3817 1971 4179 1485 4179 
C 851 4179 243 3628 243 2778 
C 243 1991 762 1408 1414 1408 
C 1952 1408 2189 1903 2253 2112 
L 2253 1864 
z
M 1427 1510 
C 1254 1510 1011 1542 813 1922 
C 678 2169 678 2461 678 2771 
C 678 3146 678 3405 858 3684 
C 947 3817 1114 4032 1485 4032 
C 2240 4032 2240 2885 2240 2632 
C 2240 2182 2035 1510 1427 1510 
z
" id="CMR17-39" transform="scale(0.015625)"/>
       </defs>
       <use transform="scale(0.996264)" xlink:href="#CMR17-31"/>
       <use transform="translate(45.690477 0)scale(0.996264)" xlink:href="#CMMI12-3a"/>
       <use transform="translate(72.787654 0)scale(0.996264)" xlink:href="#CMR17-39"/>
      </g>
     </g>
    </g>
   </g>
   <g id="matplotlib.axis_2">
    <g id="ytick_1">
     <g id="line2d_19">
      <defs>
       <path d="M 0 0 
L -3.5 0 
" id="me91a084207" style="stroke:#000000;stroke-width:0.8;"/>
      </defs>
      <g>
       <use style="stroke:#000000;stroke-width:0.8;" x="108" xlink:href="#me91a084207" y="491.52"/>
      </g>
     </g>
     <g id="line2d_20">
      <defs>
       <path d="M 0 0 
L 3.5 0 
" id="m3e6d8e8324" style="stroke:#000000;stroke-width:0.8;"/>
      </defs>
      <g>
       <use style="stroke:#000000;stroke-width:0.8;" x="777.6" xlink:href="#m3e6d8e8324" y="491.52"/>
      </g>
     </g>
     <g id="text_10">
      <!-- $\mathdefault{0.98}$ -->
      <g transform="translate(71.44965 497.69469)scale(0.18 -0.18)">
       <defs>
        <path d="M 2688 2025 
C 2688 2416 2682 3080 2413 3591 
C 2176 4039 1798 4198 1466 4198 
C 1158 4198 768 4058 525 3597 
C 269 3118 243 2524 243 2025 
C 243 1661 250 1106 448 619 
C 723 -39 1216 -128 1466 -128 
C 1760 -128 2208 -7 2470 600 
C 2662 1042 2688 1559 2688 2025 
z
M 1466 -26 
C 1056 -26 813 325 723 812 
C 653 1188 653 1738 653 2096 
C 653 2588 653 2997 736 3387 
C 858 3929 1216 4096 1466 4096 
C 1728 4096 2067 3923 2189 3400 
C 2272 3036 2278 2607 2278 2096 
C 2278 1680 2278 1169 2202 792 
C 2067 95 1690 -26 1466 -26 
z
" id="CMR17-30" transform="scale(0.015625)"/>
       </defs>
       <use transform="scale(0.996264)" xlink:href="#CMR17-30"/>
       <use transform="translate(45.690477 0)scale(0.996264)" xlink:href="#CMMI12-3a"/>
       <use transform="translate(72.787654 0)scale(0.996264)" xlink:href="#CMR17-39"/>
       <use transform="translate(118.478131 0)scale(0.996264)" xlink:href="#CMR17-38"/>
      </g>
     </g>
    </g>
    <g id="ytick_2">
     <g id="line2d_21">
      <g>
       <use style="stroke:#000000;stroke-width:0.8;" x="108" xlink:href="#me91a084207" y="438.72"/>
      </g>
     </g>
     <g id="line2d_22">
      <g>
       <use style="stroke:#000000;stroke-width:0.8;" x="777.6" xlink:href="#m3e6d8e8324" y="438.72"/>
      </g>
     </g>
     <g id="text_11">
      <!-- $\mathdefault{0.99}$ -->
      <g transform="translate(71.44965 444.89469)scale(0.18 -0.18)">
       <use transform="scale(0.996264)" xlink:href="#CMR17-30"/>
       <use transform="translate(45.690477 0)scale(0.996264)" xlink:href="#CMMI12-3a"/>
       <use transform="translate(72.787654 0)scale(0.996264)" xlink:href="#CMR17-39"/>
       <use transform="translate(118.478131 0)scale(0.996264)" xlink:href="#CMR17-39"/>
      </g>
     </g>
    </g>
    <g id="ytick_3">
     <g id="line2d_23">
      <g>
       <use style="stroke:#000000;stroke-width:0.8;" x="108" xlink:href="#me91a084207" y="385.92"/>
      </g>
     </g>
     <g id="line2d_24">
      <g>
       <use style="stroke:#000000;stroke-width:0.8;" x="777.6" xlink:href="#m3e6d8e8324" y="385.92"/>
      </g>
     </g>
     <g id="text_12">
      <!-- $\mathdefault{1.00}$ -->
      <g transform="translate(71.44965 392.09469)scale(0.18 -0.18)">
       <use transform="scale(0.996264)" xlink:href="#CMR17-31"/>
       <use transform="translate(45.690477 0)scale(0.996264)" xlink:href="#CMMI12-3a"/>
       <use transform="translate(72.787654 0)scale(0.996264)" xlink:href="#CMR17-30"/>
       <use transform="translate(118.478131 0)scale(0.996264)" xlink:href="#CMR17-30"/>
      </g>
     </g>
    </g>
    <g id="ytick_4">
     <g id="line2d_25">
      <g>
       <use style="stroke:#000000;stroke-width:0.8;" x="108" xlink:href="#me91a084207" y="333.12"/>
      </g>
     </g>
     <g id="line2d_26">
      <g>
       <use style="stroke:#000000;stroke-width:0.8;" x="777.6" xlink:href="#m3e6d8e8324" y="333.12"/>
      </g>
     </g>
     <g id="text_13">
      <!-- $\mathdefault{1.01}$ -->
      <g transform="translate(71.44965 339.29469)scale(0.18 -0.18)">
       <use transform="scale(0.996264)" xlink:href="#CMR17-31"/>
       <use transform="translate(45.690477 0)scale(0.996264)" xlink:href="#CMMI12-3a"/>
       <use transform="translate(72.787654 0)scale(0.996264)" xlink:href="#CMR17-30"/>
       <use transform="translate(118.478131 0)scale(0.996264)" xlink:href="#CMR17-31"/>
      </g>
     </g>
    </g>
    <g id="ytick_5">
     <g id="line2d_27">
      <g>
       <use style="stroke:#000000;stroke-width:0.8;" x="108" xlink:href="#me91a084207" y="280.32"/>
      </g>
     </g>
     <g id="line2d_28">
      <g>
       <use style="stroke:#000000;stroke-width:0.8;" x="777.6" xlink:href="#m3e6d8e8324" y="280.32"/>
      </g>
     </g>
     <g id="text_14">
      <!-- $\mathdefault{1.02}$ -->
      <g transform="translate(71.44965 286.49469)scale(0.18 -0.18)">
       <use transform="scale(0.996264)" xlink:href="#CMR17-31"/>
       <use transform="translate(45.690477 0)scale(0.996264)" xlink:href="#CMMI12-3a"/>
       <use transform="translate(72.787654 0)scale(0.996264)" xlink:href="#CMR17-30"/>
       <use transform="translate(118.478131 0)scale(0.996264)" xlink:href="#CMR17-32"/>
      </g>
     </g>
    </g>
    <g id="ytick_6">
     <g id="line2d_29">
      <g>
       <use style="stroke:#000000;stroke-width:0.8;" x="108" xlink:href="#me91a084207" y="227.52"/>
      </g>
     </g>
     <g id="line2d_30">
      <g>
       <use style="stroke:#000000;stroke-width:0.8;" x="777.6" xlink:href="#m3e6d8e8324" y="227.52"/>
      </g>
     </g>
     <g id="text_15">
      <!-- $\mathdefault{1.03}$ -->
      <g transform="translate(71.44965 233.69469)scale(0.18 -0.18)">
       <use transform="scale(0.996264)" xlink:href="#CMR17-31"/>
       <use transform="translate(45.690477 0)scale(0.996264)" xlink:href="#CMMI12-3a"/>
       <use transform="translate(72.787654 0)scale(0.996264)" xlink:href="#CMR17-30"/>
       <use transform="translate(118.478131 0)scale(0.996264)" xlink:href="#CMR17-33"/>
      </g>
     </g>
    </g>
    <g id="ytick_7">
     <g id="line2d_31">
      <g>
       <use style="stroke:#000000;stroke-width:0.8;" x="108" xlink:href="#me91a084207" y="174.72"/>
      </g>
     </g>
     <g id="line2d_32">
      <g>
       <use style="stroke:#000000;stroke-width:0.8;" x="777.6" xlink:href="#m3e6d8e8324" y="174.72"/>
      </g>
     </g>
     <g id="text_16">
      <!-- $\mathdefault{1.04}$ -->
      <g transform="translate(71.44965 180.89469)scale(0.18 -0.18)">
       <use transform="scale(0.996264)" xlink:href="#CMR17-31"/>
       <use transform="translate(45.690477 0)scale(0.996264)" xlink:href="#CMMI12-3a"/>
       <use transform="translate(72.787654 0)scale(0.996264)" xlink:href="#CMR17-30"/>
       <use transform="translate(118.478131 0)scale(0.996264)" xlink:href="#CMR17-34"/>
      </g>
     </g>
    </g>
    <g id="ytick_8">
     <g id="line2d_33">
      <g>
       <use style="stroke:#000000;stroke-width:0.8;" x="108" xlink:href="#me91a084207" y="121.92"/>
      </g>
     </g>
     <g id="line2d_34">
      <g>
       <use style="stroke:#000000;stroke-width:0.8;" x="777.6" xlink:href="#m3e6d8e8324" y="121.92"/>
      </g>
     </g>
     <g id="text_17">
      <!-- $\mathdefault{1.05}$ -->
      <g transform="translate(71.44965 128.09469)scale(0.18 -0.18)">
       <use transform="scale(0.996264)" xlink:href="#CMR17-31"/>
       <use transform="translate(45.690477 0)scale(0.996264)" xlink:href="#CMMI12-3a"/>
       <use transform="translate(72.787654 0)scale(0.996264)" xlink:href="#CMR17-30"/>
       <use transform="translate(118.478131 0)scale(0.996264)" xlink:href="#CMR17-35"/>
      </g>
     </g>
    </g>
    <g id="ytick_9">
     <g id="line2d_35">
      <g>
       <use style="stroke:#000000;stroke-width:0.8;" x="108" xlink:href="#me91a084207" y="69.12"/>
      </g>
     </g>
     <g id="line2d_36">
      <g>
       <use style="stroke:#000000;stroke-width:0.8;" x="777.6" xlink:href="#m3e6d8e8324" y="69.12"/>
      </g>
     </g>
     <g id="text_18">
      <!-- $\mathdefault{1.06}$ -->
      <g transform="translate(71.44965 75.29469)scale(0.18 -0.18)">
       <use transform="scale(0.996264)" xlink:href="#CMR17-31"/>
       <use transform="translate(45.690477 0)scale(0.996264)" xlink:href="#CMMI12-3a"/>
       <use transform="translate(72.787654 0)scale(0.996264)" xlink:href="#CMR17-30"/>
       <use transform="translate(118.478131 0)scale(0.996264)" xlink:href="#CMR17-36"/>
      </g>
     </g>
    </g>
    <g id="text_19">
     <!-- Growth Factors -->
     <g transform="translate(63.18704 360.140894)rotate(-90)scale(0.22 -0.22)">
      <defs>
       <path d="M 3539 487 
L 3546 487 
C 3578 333 3718 0 3808 0 
L 3814 0 
C 3821 8 3827 21 3827 43 
C 3827 62 3821 94 3821 107 
L 3821 1173 
C 3821 1212 3814 1263 3814 1307 
C 3814 1523 3968 1536 4218 1536 
L 4218 1677 
L 2790 1677 
L 2790 1536 
C 2867 1536 2957 1536 3053 1536 
C 3328 1536 3507 1516 3507 1244 
L 3507 870 
C 3507 533 3347 64 2458 64 
C 1363 64 678 1016 678 2198 
C 678 2805 845 3432 1293 3848 
C 1574 4109 1984 4288 2374 4288 
C 3104 4288 3565 3629 3699 2938 
L 3718 2803 
C 3731 2765 3718 2701 3776 2701 
C 3814 2701 3821 2727 3821 2759 
L 3821 4372 
C 3821 4392 3821 4416 3802 4423 
L 3795 4423 
C 3744 4423 3526 3820 3501 3718 
C 3187 4086 2906 4423 2298 4423 
C 1120 4423 320 3300 320 2170 
C 320 1066 1075 -77 2330 -77 
C 2752 -77 3398 64 3539 487 
z
" id="SFRM3583-47" transform="scale(0.015625)"/>
       <path d="M 288 2746 
L 288 2605 
L 352 2605 
C 557 2605 666 2560 666 2275 
L 666 361 
C 666 154 512 141 288 141 
L 288 0 
L 1389 0 
L 1389 141 
L 1261 141 
C 1075 141 922 160 922 407 
L 922 1350 
C 922 1900 1037 2740 1658 2740 
C 1728 2740 1798 2721 1862 2695 
C 1786 2663 1722 2611 1722 2520 
C 1722 2430 1792 2339 1901 2339 
C 1997 2339 2074 2423 2074 2519 
C 2074 2732 1837 2816 1664 2816 
C 1274 2816 979 2435 922 2080 
L 915 2816 
L 288 2746 
z
" id="SFRM3583-72" transform="scale(0.015625)"/>
       <path d="M 1350 2816 
C 614 2726 237 2042 237 1376 
C 237 698 685 -32 1440 -32 
L 1504 -32 
C 2240 58 2624 736 2624 1382 
C 2624 2035 2182 2822 1440 2822 
C 1408 2822 1382 2816 1350 2816 
z
M 563 1274 
L 563 1376 
C 563 1856 621 2395 1114 2663 
C 1197 2702 1293 2734 1389 2734 
L 1434 2734 
C 2054 2734 2298 2012 2298 1495 
C 2298 990 2246 269 1606 77 
C 1549 64 1491 51 1434 51 
C 960 51 653 525 595 979 
C 576 1075 576 1178 563 1274 
z
" id="SFRM3583-6f" transform="scale(0.015625)"/>
       <path d="M 90 2752 
L 90 2612 
L 141 2612 
C 397 2612 429 2496 563 2088 
L 1216 122 
C 1235 70 1248 -32 1318 -32 
L 1325 -32 
C 1382 -19 1402 96 1421 147 
L 1792 1264 
C 1850 1443 1907 1622 1971 1801 
C 2003 1902 2048 2005 2067 2107 
L 2074 2107 
C 2093 2005 2138 1902 2170 1801 
C 2234 1622 2291 1443 2349 1264 
L 2720 147 
C 2739 96 2758 -19 2816 -32 
L 2822 -32 
C 2893 -32 2906 70 2925 122 
L 3098 638 
C 3264 1143 3430 1641 3597 2145 
C 3661 2350 3776 2612 4051 2612 
L 4051 2752 
L 3296 2752 
L 3296 2612 
C 3456 2612 3552 2464 3552 2350 
C 3552 2254 3514 2158 3482 2069 
C 3290 1501 3104 926 2912 358 
C 2835 538 2784 729 2726 914 
C 2579 1354 2426 1801 2278 2248 
C 2259 2312 2221 2389 2221 2458 
C 2221 2592 2387 2612 2490 2612 
L 2490 2752 
L 1600 2752 
L 1600 2612 
L 1645 2612 
C 1824 2612 1920 2573 1984 2357 
C 1997 2325 2016 2280 2016 2241 
L 2016 2229 
C 2010 2165 1984 2107 1965 2049 
L 1843 1698 
C 1690 1264 1536 817 1408 377 
L 1402 377 
C 1389 447 1357 517 1338 588 
L 1216 952 
C 1094 1315 973 1674 851 2038 
L 762 2318 
C 742 2363 723 2414 723 2459 
L 723 2478 
C 742 2592 896 2612 992 2612 
L 992 2752 
L 90 2752 
z
" id="SFRM3583-77" transform="scale(0.015625)"/>
       <path d="M 845 3936 
C 845 3572 762 2688 109 2688 
L 109 2612 
L 666 2612 
L 666 1136 
C 666 1048 659 945 659 849 
C 659 453 787 -32 1318 -32 
C 1811 -32 1907 511 1907 907 
L 1907 1155 
L 1824 1155 
C 1824 1059 1830 964 1830 862 
C 1830 575 1773 51 1376 51 
C 1005 51 922 505 922 849 
C 922 958 928 1060 928 1168 
L 928 2612 
L 1811 2612 
L 1811 2752 
L 928 2752 
L 928 3936 
L 845 3936 
z
" id="SFRM3583-74" transform="scale(0.015625)"/>
       <path d="M 301 4365 
L 301 4224 
L 378 4224 
C 602 4224 678 4128 678 3911 
L 678 372 
C 678 180 595 141 301 141 
L 301 0 
L 1318 0 
L 1318 141 
L 1229 141 
C 1082 141 941 160 941 361 
L 941 1777 
C 979 2217 1203 2740 1709 2740 
C 2112 2740 2266 2417 2266 1951 
L 2266 361 
C 2266 154 2112 141 1888 141 
L 1888 0 
L 2906 0 
L 2906 141 
L 2803 141 
C 2656 141 2528 160 2528 386 
L 2528 1879 
C 2528 2312 2445 2816 1760 2816 
C 1427 2816 1178 2629 1030 2358 
C 992 2293 954 2217 941 2145 
L 934 4435 
L 301 4365 
z
" id="SFRM3583-68" transform="scale(0.015625)"/>
       <path d="M 467 4365 
L 467 4224 
L 576 4224 
C 742 4224 877 4205 877 3956 
L 877 410 
C 877 160 768 141 467 141 
L 467 0 
L 1702 0 
L 1702 141 
L 1555 141 
C 1331 141 1190 160 1190 404 
L 1190 2112 
L 1779 2112 
C 1984 2112 2221 2112 2336 1930 
C 2419 1808 2426 1633 2426 1477 
L 2426 1368 
L 2509 1368 
L 2509 3006 
L 2426 3006 
L 2426 2897 
C 2426 2419 2285 2259 1645 2259 
L 1190 2259 
L 1190 4046 
C 1190 4160 1242 4224 1363 4224 
L 2202 4224 
C 2630 4224 3117 4224 3302 3660 
C 3379 3442 3392 3204 3418 2980 
L 3501 2980 
L 3366 4365 
L 467 4365 
z
" id="SFRM3583-46" transform="scale(0.015625)"/>
       <path d="M 576 2080 
C 659 2413 883 2740 1274 2740 
C 1619 2740 1869 2415 1920 2101 
C 1933 2018 1933 1928 1933 1846 
L 1933 1597 
C 1318 1597 474 1456 320 686 
C 314 647 314 603 314 564 
C 314 134 800 -32 1133 -32 
C 1446 -32 1856 177 1939 535 
L 1946 535 
C 1946 268 2125 0 2394 0 
C 2746 0 2829 376 2829 650 
L 2829 936 
L 2746 936 
L 2746 612 
C 2746 408 2701 115 2470 115 
C 2208 115 2195 453 2195 625 
L 2195 1810 
C 2195 1969 2189 2134 2125 2288 
C 1990 2599 1638 2816 1293 2816 
C 800 2816 480 2386 480 1918 
C 480 1798 570 1728 672 1728 
C 774 1728 858 1811 858 1914 
C 858 2010 794 2099 672 2099 
C 640 2099 608 2093 576 2080 
z
M 1933 1527 
L 1933 898 
C 1933 475 1670 77 1229 45 
L 1190 45 
C 896 45 627 276 627 590 
C 627 1257 1363 1527 1933 1527 
z
" id="SFRM3583-61" transform="scale(0.015625)"/>
       <path d="M 2221 2092 
C 2189 2099 2157 2105 2125 2105 
C 2022 2105 1946 2016 1946 1920 
C 1946 1824 2022 1728 2131 1728 
C 2221 1728 2310 1792 2323 1888 
L 2323 1926 
C 2323 2366 1965 2819 1440 2819 
C 717 2819 269 2069 269 1390 
C 269 718 678 32 1363 -32 
L 1427 -32 
C 1882 -32 2240 257 2368 688 
C 2374 713 2381 739 2381 765 
C 2381 784 2368 790 2355 790 
C 2285 790 2272 669 2246 604 
C 2131 276 1824 51 1498 51 
C 890 51 595 769 595 1295 
C 595 1833 710 2737 1453 2737 
C 1811 2737 2138 2443 2221 2092 
z
" id="SFRM3583-63" transform="scale(0.015625)"/>
       <path d="M 422 384 
C 576 141 781 -32 1126 -32 
C 1549 -32 2067 147 2067 764 
C 2067 1071 1901 1353 1600 1501 
C 1216 1694 538 1604 384 2085 
C 371 2123 365 2168 365 2213 
C 365 2592 749 2752 1094 2752 
C 1466 2752 1786 2539 1837 1937 
C 1843 1905 1837 1822 1882 1822 
C 1920 1822 1926 1854 1926 1893 
L 1926 2758 
C 1926 2784 1926 2816 1901 2816 
C 1869 2816 1766 2636 1734 2540 
C 1562 2722 1376 2816 1120 2816 
C 730 2816 192 2688 192 2108 
C 192 1424 1030 1424 1408 1289 
C 1670 1200 1894 975 1894 686 
L 1894 673 
C 1882 269 1568 45 1139 45 
C 544 45 371 604 294 1065 
C 288 1104 288 1181 237 1181 
C 198 1181 192 1155 192 1123 
L 192 26 
C 192 6 192 -19 211 -26 
L 218 -26 
C 262 -26 371 256 422 384 
z
" id="SFRM3583-73" transform="scale(0.015625)"/>
      </defs>
      <use transform="scale(0.996264)" xlink:href="#SFRM3583-47"/>
      <use transform="translate(69.984157 0)scale(0.996264)" xlink:href="#SFRM3583-72"/>
      <use transform="translate(104.642503 0)scale(0.996264)" xlink:href="#SFRM3583-6f"/>
      <use transform="translate(146.740981 0)scale(0.996264)" xlink:href="#SFRM3583-77"/>
      <use transform="translate(211.159568 0)scale(0.996264)" xlink:href="#SFRM3583-74"/>
      <use transform="translate(245.817914 0)scale(0.996264)" xlink:href="#SFRM3583-68"/>
      <use transform="translate(325.054635 0)scale(0.996264)" xlink:href="#SFRM3583-46"/>
      <use transform="translate(375.804357 0)scale(0.996264)" xlink:href="#SFRM3583-61"/>
      <use transform="translate(420.382823 0)scale(0.996264)" xlink:href="#SFRM3583-63"/>
      <use transform="translate(460.001222 0)scale(0.996264)" xlink:href="#SFRM3583-74"/>
      <use transform="translate(494.659568 0)scale(0.996264)" xlink:href="#SFRM3583-6f"/>
      <use transform="translate(539.238035 0)scale(0.996264)" xlink:href="#SFRM3583-72"/>
      <use transform="translate(573.896381 0)scale(0.996264)" xlink:href="#SFRM3583-73"/>
     </g>
    </g>
   </g>
   <g id="line2d_37">
    <path clip-path="url(#p141ddc8b45)" d="M -1 362.738887 
L 640.636364 362.738887 
" style="fill:none;stroke:#0000ff;stroke-linecap:square;stroke-width:1.5;"/>
   </g>
   <g id="line2d_38">
    <path clip-path="url(#p141ddc8b45)" d="M -1 227.52 
L 640.636364 227.52 
" style="fill:none;stroke:#000000;stroke-linecap:square;stroke-width:1.5;"/>
   </g>
   <g id="line2d_39">
    <path clip-path="url(#p141ddc8b45)" d="M 100.745038 -1 
L 105.323435 8.743674 
L 111.441297 21.215064 
L 117.559159 33.120243 
L 123.677021 44.484013 
L 129.794884 55.328905 
L 135.912746 65.678412 
L 142.030608 75.554435 
L 148.14847 84.978967 
L 154.266332 93.970069 
L 160.384194 102.551158 
L 166.502056 110.740245 
L 172.619918 118.556565 
L 178.73778 126.017724 
L 184.855642 133.141502 
L 190.973504 139.94287 
L 197.091366 146.43948 
L 203.209228 152.643822 
L 209.32709 158.572369 
L 215.444952 164.236616 
L 221.562814 169.651364 
L 227.680676 174.827573 
L 233.798538 179.778356 
L 239.9164 184.512891 
L 246.034262 189.042989 
L 252.152124 193.37895 
L 258.269986 197.529274 
L 267.446779 203.426399 
L 276.623572 208.95923 
L 285.800365 214.144096 
L 294.977159 219.01438 
L 304.153952 223.591413 
L 313.330745 227.89187 
L 322.507538 231.935874 
L 331.684331 235.743177 
L 340.861124 239.329658 
L 350.037917 242.709417 
L 359.21471 245.896129 
L 368.391503 248.902844 
L 380.627227 252.65366 
L 392.862951 256.128088 
L 405.098675 259.352919 
L 417.334399 262.348509 
L 429.570123 265.1338 
L 441.805847 267.725111 
L 457.100503 270.715158 
L 472.395158 273.453883 
L 487.689813 275.964883 
L 502.984468 278.270113 
L 521.338054 280.78783 
L 539.69164 283.064969 
L 558.045226 285.126564 
L 579.457743 287.286956 
L 600.87026 289.212825 
L 622.282778 290.931474 
L 640.636364 292.25678 
L 640.636364 292.25678 
" style="fill:none;stroke:#0000ff;stroke-linecap:square;stroke-width:1.5;"/>
   </g>
   <g id="line2d_40">
    <path clip-path="url(#p141ddc8b45)" d="M 214.265592 -1 
L 218.503883 7.693963 
L 227.680676 25.932423 
L 236.857469 43.441061 
L 246.034262 60.250869 
L 255.211055 76.402174 
L 264.387848 91.926259 
L 273.564641 106.853079 
L 282.741434 121.21543 
L 291.918228 135.037424 
L 301.095021 148.346463 
L 310.271814 161.168449 
L 319.448607 173.526063 
L 328.6254 185.439224 
L 337.802193 196.929469 
L 346.978986 208.016856 
L 356.155779 218.719331 
L 365.332572 229.054354 
L 374.509365 239.037848 
L 383.686158 248.685513 
L 392.862951 258.011809 
L 402.039744 267.03057 
L 411.216537 275.754092 
L 420.39333 284.194539 
L 429.570123 292.364883 
L 438.746916 300.276237 
L 447.923709 307.937523 
L 457.100503 315.359347 
L 466.277296 322.552785 
L 475.454089 329.523285 
L 484.630882 336.283223 
L 496.866606 344.978326 
L 509.10233 353.329299 
L 521.338054 361.351635 
L 533.573778 369.062071 
L 545.809502 376.474371 
L 558.045226 383.603979 
L 570.28095 390.463191 
L 582.516674 397.063663 
L 594.752398 403.417852 
L 606.988122 409.536694 
L 619.223847 415.430339 
L 631.459571 421.108463 
L 640.636364 425.231147 
L 640.636364 425.231147 
" style="fill:none;stroke:#ff0000;stroke-linecap:square;stroke-width:1.5;"/>
   </g>
   <g id="line2d_41">
    <path clip-path="url(#p141ddc8b45)" d="M 148.364121 -1 
L 154.266332 14.81467 
L 160.384194 30.726898 
L 166.502056 46.171113 
L 172.619918 61.164084 
L 178.73778 75.721385 
L 184.855642 89.858615 
L 190.973504 103.590051 
L 197.091366 116.930964 
L 203.209228 129.893647 
L 209.32709 142.492812 
L 215.444952 154.739926 
L 221.562814 166.648416 
L 227.680676 178.228994 
L 233.798538 189.494116 
L 242.975331 205.823369 
L 252.152124 221.499554 
L 261.328917 236.557936 
L 270.50571 251.029457 
L 279.682503 264.940895 
L 288.859296 278.323349 
L 298.03609 291.201136 
L 307.212883 303.596923 
L 316.389676 315.536018 
L 325.566469 327.039966 
L 334.743262 338.128901 
L 343.920055 348.821634 
L 353.096848 359.135812 
L 362.273641 369.08909 
L 371.450434 378.697734 
L 380.627227 387.977206 
L 389.80402 396.941048 
L 398.980813 405.60336 
L 408.157606 413.97708 
L 417.334399 422.074811 
L 426.511192 429.908214 
L 435.687985 437.487359 
L 444.864778 444.822141 
L 454.041571 451.924142 
L 463.218365 458.801556 
L 472.395158 465.462856 
L 484.630882 474.024841 
L 496.866606 482.235859 
L 509.10233 490.115762 
L 521.338054 497.679555 
L 533.573778 504.943466 
L 545.809502 511.920817 
L 558.045226 518.626584 
L 570.28095 525.072662 
L 582.516674 531.270327 
L 594.752398 537.231641 
L 606.988122 542.967186 
L 619.223847 548.486776 
L 631.459571 553.799766 
L 640.636364 557.654267 
L 640.636364 557.654267 
" style="fill:none;stroke:#008000;stroke-linecap:square;stroke-width:1.5;"/>
   </g>
   <g id="line2d_42">
    <path clip-path="url(#p141ddc8b45)" d="M 363.949454 227.52 
" style="fill:none;stroke:#000000;stroke-linecap:square;stroke-width:1.5;"/>
    <defs>
     <path d="M 0 3 
C 0.795609 3 1.55874 2.683901 2.12132 2.12132 
C 2.683901 1.55874 3 0.795609 3 0 
C 3 -0.795609 2.683901 -1.55874 2.12132 -2.12132 
C 1.55874 -2.683901 0.795609 -3 0 -3 
C -0.795609 -3 -1.55874 -2.683901 -2.12132 -2.12132 
C -2.683901 -1.55874 -3 -0.795609 -3 0 
C -3 0.795609 -2.683901 1.55874 -2.12132 2.12132 
C -1.55874 2.683901 -0.795609 3 0 3 
z
" id="m03f416a585" style="stroke:#000000;"/>
    </defs>
    <g clip-path="url(#p141ddc8b45)">
     <use style="stroke:#000000;" x="363.949454" xlink:href="#m03f416a585" y="227.52"/>
    </g>
   </g>
   <g id="line2d_43">
    <path clip-path="url(#p141ddc8b45)" d="M 378.565553 385.92 
" style="fill:none;stroke:#000000;stroke-linecap:square;stroke-width:1.5;"/>
    <g clip-path="url(#p141ddc8b45)">
     <use style="stroke:#000000;" x="378.565553" xlink:href="#m03f416a585" y="385.92"/>
    </g>
   </g>
   <g id="line2d_44">
    <path clip-path="url(#p141ddc8b45)" d="M 378.565553 512.64 
L 378.565553 69.12 
" style="fill:none;stroke:#1f77b4;stroke-dasharray:1.5,2.475;stroke-dashoffset:0;stroke-width:1.5;"/>
   </g>
   <g id="patch_3">
    <path d="M 108 512.64 
L 108 69.12 
" style="fill:none;stroke:#000000;stroke-linecap:square;stroke-linejoin:miter;stroke-width:0.8;"/>
   </g>
   <g id="patch_4">
    <path d="M 777.6 512.64 
L 777.6 69.12 
" style="fill:none;stroke:#000000;stroke-linecap:square;stroke-linejoin:miter;stroke-width:0.8;"/>
   </g>
   <g id="patch_5">
    <path d="M 108 512.64 
L 777.6 512.64 
" style="fill:none;stroke:#000000;stroke-linecap:square;stroke-linejoin:miter;stroke-width:0.8;"/>
   </g>
   <g id="patch_6">
    <path d="M 108 69.12 
L 777.6 69.12 
" style="fill:none;stroke:#000000;stroke-linecap:square;stroke-linejoin:miter;stroke-width:0.8;"/>
   </g>
   <g id="text_20">
    <!-- $1.00 = \Ex_{t}[\mNrm_{t+1}/\mNrm_{t}]:~ \Trg{m} \rightarrow~~$ -->
    <g transform="translate(124.909504 391.2)scale(0.22 -0.22)">
     <defs>
      <path d="M 4115 2017 
C 4211 2017 4307 2017 4307 2125 
C 4307 2240 4198 2240 4090 2240 
L 512 2240 
C 403 2240 294 2240 294 2125 
C 294 2017 390 2017 486 2017 
L 4115 2017 
z
M 4090 896 
C 4198 896 4307 896 4307 1011 
C 4307 1119 4211 1119 4115 1119 
L 486 1119 
C 390 1119 294 1119 294 1011 
C 294 896 403 896 512 896 
L 4090 896 
z
" id="CMR17-3d" transform="scale(0.015625)"/>
      <path d="M 1658 2176 
C 1818 2176 2125 2176 2349 2046 
C 2656 1853 2682 1517 2682 1480 
C 2688 1393 2688 1312 2797 1312 
C 2906 1312 2906 1401 2906 1517 
L 2906 3251 
C 2906 3353 2906 3456 2797 3456 
C 2688 3456 2682 3355 2682 3301 
C 2643 2432 1990 2432 1658 2432 
L 1658 3772 
C 1658 4198 1779 4198 1933 4198 
L 2240 4198 
C 3104 4198 3533 3759 3571 3320 
C 3578 3269 3584 3174 3686 3174 
C 3795 3174 3795 3276 3795 3385 
L 3795 4218 
C 3795 4416 3782 4416 3584 4416 
L 307 4416 
C 192 4416 90 4416 90 4304 
C 90 4198 211 4198 262 4198 
C 627 4198 653 4147 653 3832 
L 653 622 
C 653 320 634 256 294 256 
C 198 256 90 256 90 147 
C 90 32 192 32 307 32 
L 3699 32 
C 3821 32 3885 32 3904 123 
C 3910 129 4090 1213 4090 1245 
C 4090 1316 4032 1362 3981 1362 
C 3891 1362 3866 1278 3866 1271 
C 3827 1102 3763 828 3296 549 
C 2963 347 2637 256 2285 256 
L 1933 256 
C 1779 256 1658 256 1658 684 
L 1658 2176 
z
M 3571 4198 
L 3571 3896 
C 3462 4015 3341 4116 3206 4198 
L 3571 4198 
z
M 2323 2315 
C 2426 2360 2566 2456 2682 2590 
L 2682 2052 
C 2528 2225 2330 2308 2323 2308 
L 2323 2315 
z
M 877 3845 
C 877 3923 877 4083 826 4198 
L 1504 4198 
C 1434 4051 1434 3839 1434 3781 
L 1434 673 
C 1434 442 1478 314 1504 256 
L 826 256 
C 877 371 877 531 877 609 
L 877 3845 
z
M 3258 256 
L 3258 262 
C 3462 367 3635 504 3763 621 
C 3757 596 3712 308 3706 256 
L 3258 256 
z
" id="MSBM10-45" transform="scale(0.015625)"/>
      <path d="M 1286 2566 
L 1875 2566 
C 1997 2566 2061 2566 2061 2681 
C 2061 2752 2022 2752 1894 2752 
L 1331 2752 
L 1568 3692 
C 1594 3781 1594 3794 1594 3840 
C 1594 3943 1510 4000 1427 4000 
C 1376 4000 1229 3981 1178 3775 
L 928 2752 
L 326 2752 
C 198 2752 141 2752 141 2630 
C 141 2566 186 2566 307 2566 
L 877 2566 
L 454 881 
C 403 658 384 594 384 511 
C 384 211 595 -64 954 -64 
C 1600 -64 1946 868 1946 912 
C 1946 951 1920 970 1882 970 
C 1869 970 1843 970 1830 944 
C 1824 938 1818 931 1773 829 
C 1638 511 1344 64 973 64 
C 781 64 768 224 768 364 
C 768 370 768 492 787 568 
L 1286 2566 
z
" id="CMMI12-74" transform="scale(0.015625)"/>
      <path d="M 1504 -1600 
L 1504 -1377 
L 902 -1377 
L 902 4544 
L 1504 4544 
L 1504 4767 
L 678 4767 
L 678 -1600 
L 1504 -1600 
z
" id="CMR17-5b" transform="scale(0.015625)"/>
      <path d="M 1318 1871 
C 1331 1910 1491 2229 1728 2433 
C 1894 2586 2112 2689 2362 2689 
C 2618 2689 2707 2497 2707 2242 
C 2707 2203 2707 2076 2630 1775 
L 2470 1118 
C 2419 926 2298 453 2285 383 
C 2259 287 2221 121 2221 96 
C 2221 6 2291 -64 2387 -64 
C 2579 -64 2611 83 2669 313 
L 3053 1839 
C 3066 1890 3398 2689 4102 2689 
C 4358 2689 4448 2497 4448 2242 
C 4448 1884 4198 1188 4058 805 
C 4000 651 3968 568 3968 453 
C 3968 166 4166 -64 4474 -64 
C 5069 -64 5293 875 5293 913 
C 5293 945 5267 971 5229 971 
C 5171 971 5165 952 5133 843 
C 4986 332 4749 64 4493 64 
C 4429 64 4326 64 4326 269 
C 4326 436 4403 640 4429 710 
C 4544 1018 4832 1773 4832 2145 
C 4832 2528 4608 2816 4122 2816 
C 3693 2816 3347 2574 3091 2197 
C 3072 2542 2861 2816 2381 2816 
C 1811 2816 1510 2415 1395 2255 
C 1376 2618 1114 2816 832 2816 
C 646 2816 499 2727 378 2484 
C 262 2254 173 1865 173 1839 
C 173 1814 198 1782 243 1782 
C 294 1782 301 1788 339 1935 
C 435 2312 557 2689 813 2689 
C 960 2689 1011 2586 1011 2395 
C 1011 2254 947 2005 902 1807 
L 723 1118 
C 698 996 627 709 595 594 
C 550 428 480 128 480 96 
C 480 6 550 -64 646 -64 
C 723 -64 813 -26 864 70 
C 877 102 934 326 966 453 
L 1107 1028 
L 1318 1871 
z
" id="CMMI12-6d" transform="scale(0.015625)"/>
      <path d="M 2413 1472 
L 4109 1472 
C 4198 1472 4307 1472 4307 1580 
C 4307 1695 4205 1695 4109 1695 
L 2413 1695 
L 2413 3386 
C 2413 3475 2413 3584 2304 3584 
C 2189 3584 2189 3482 2189 3386 
L 2189 1695 
L 493 1695 
C 403 1695 294 1695 294 1587 
C 294 1472 397 1472 493 1472 
L 2189 1472 
L 2189 -218 
C 2189 -307 2189 -416 2298 -416 
C 2413 -416 2413 -314 2413 -218 
L 2413 1472 
z
" id="CMR17-2b" transform="scale(0.015625)"/>
      <path d="M 2746 4562 
C 2746 4569 2784 4666 2784 4678 
C 2784 4755 2720 4800 2669 4800 
C 2637 4800 2579 4800 2528 4659 
L 384 -1363 
C 384 -1370 346 -1465 346 -1478 
C 346 -1555 410 -1600 461 -1600 
C 499 -1600 557 -1593 602 -1459 
L 2746 4562 
z
" id="CMMI12-3d" transform="scale(0.015625)"/>
      <path d="M 915 4767 
L 90 4767 
L 90 4544 
L 691 4544 
L 691 -1377 
L 90 -1377 
L 90 -1600 
L 915 -1600 
L 915 4767 
z
" id="CMR17-5d" transform="scale(0.015625)"/>
      <path d="M 1062 2491 
C 1062 2650 934 2752 800 2752 
C 672 2752 538 2650 538 2491 
C 538 2332 666 2230 800 2230 
C 928 2230 1062 2332 1062 2491 
z
M 1062 261 
C 1062 420 934 522 800 522 
C 672 522 538 420 538 261 
C 538 102 666 0 800 0 
C 928 0 1062 102 1062 261 
z
" id="CMR17-3a" transform="scale(0.015625)"/>
      <path d="M 1466 4421 
L 678 3555 
L 755 3478 
L 1466 4166 
L 2176 3478 
L 2253 3555 
L 1466 4421 
z
" id="CMR17-5e" transform="scale(0.015625)"/>
      <path d="M 5338 1472 
C 4986 1203 4813 941 4762 858 
C 4474 416 4422 13 4422 6 
C 4422 -70 4499 -70 4550 -70 
C 4659 -70 4666 -58 4691 58 
C 4838 685 5216 1222 5939 1517 
C 6016 1542 6035 1555 6035 1600 
C 6035 1645 5997 1664 5984 1670 
C 5702 1779 4928 2099 4685 3174 
C 4666 3251 4659 3270 4550 3270 
C 4499 3270 4422 3270 4422 3193 
C 4422 3180 4480 2777 4749 2349 
C 4877 2157 5062 1933 5338 1728 
L 582 1728 
C 467 1728 352 1728 352 1600 
C 352 1472 467 1472 582 1472 
L 5338 1472 
z
" id="CMSY10-21" transform="scale(0.015625)"/>
     </defs>
     <use transform="scale(0.996264)" xlink:href="#CMR17-31"/>
     <use transform="translate(45.690477 0)scale(0.996264)" xlink:href="#CMMI12-3a"/>
     <use transform="translate(72.787654 0)scale(0.996264)" xlink:href="#CMR17-30"/>
     <use transform="translate(118.478131 0)scale(0.996264)" xlink:href="#CMR17-30"/>
     <use transform="translate(191.842617 0)scale(0.996264)" xlink:href="#CMR17-3d"/>
     <use transform="translate(291.231414 0)scale(0.996264)" xlink:href="#MSBM10-45"/>
     <use transform="translate(357.649233 -14.943915)scale(0.697382)" xlink:href="#CMMI12-74"/>
     <use transform="translate(382.805674 0)scale(0.996264)" xlink:href="#CMR17-5b"/>
     <use transform="translate(407.676733 0)scale(0.996264)" xlink:href="#CMMI12-6d"/>
     <use transform="translate(493.003957 -14.943915)scale(0.697382)" xlink:href="#CMMI12-74"/>
     <use transform="translate(517.662267 -14.943915)scale(0.697382)" xlink:href="#CMR17-2b"/>
     <use transform="translate(567.862398 -14.943915)scale(0.697382)" xlink:href="#CMR17-31"/>
     <use transform="translate(600.343712 0)scale(0.996264)" xlink:href="#CMMI12-3d"/>
     <use transform="translate(649.118631 0)scale(0.996264)" xlink:href="#CMMI12-6d"/>
     <use transform="translate(734.445856 -14.943915)scale(0.697382)" xlink:href="#CMMI12-74"/>
     <use transform="translate(759.602297 0)scale(0.996264)" xlink:href="#CMR17-5d"/>
     <use transform="translate(812.147364 0)scale(0.996264)" xlink:href="#CMR17-3a"/>
     <use transform="translate(914.209106 0.006461)scale(0.996264)" xlink:href="#CMR17-5e"/>
     <use transform="translate(894.390725 0)scale(0.996264)" xlink:href="#CMMI12-6d"/>
     <use transform="translate(1007.391958 0)scale(0.996264)" xlink:href="#CMSY10-21"/>
    </g>
   </g>
   <g id="text_21">
    <!-- $\PermGroFac$ -->
    <g transform="translate(648.245455 232.8)scale(0.22 -0.22)">
     <defs>
      <path d="M 2330 818 
C 3366 907 3974 1553 3974 2172 
C 3974 2818 3341 3444 2330 3534 
L 2330 3897 
C 2330 4128 2342 4192 2829 4192 
L 2970 4192 
L 2970 4352 
C 2707 4352 2400 4352 2131 4352 
C 1862 4352 1549 4352 1286 4352 
L 1286 4192 
L 1427 4192 
C 1914 4192 1926 4128 1926 3897 
L 1926 3534 
C 922 3444 294 2811 294 2179 
C 294 1521 947 907 1926 818 
L 1926 454 
C 1926 224 1914 160 1427 160 
L 1286 160 
L 1286 0 
C 1549 0 1862 0 2131 0 
C 2400 0 2707 0 2970 0 
L 2970 160 
L 2829 160 
C 2342 160 2330 224 2330 454 
L 2330 818 
z
M 1926 927 
C 1350 991 768 1323 768 2173 
C 768 3048 1370 3367 1926 3425 
L 1926 927 
z
M 2330 3425 
C 2835 3380 3501 3093 3501 2179 
C 3501 1240 2810 972 2330 927 
L 2330 3425 
z
" id="CMR17-8" transform="scale(0.015625)"/>
     </defs>
     <use transform="scale(0.996264)" xlink:href="#CMR17-8"/>
    </g>
   </g>
   <g id="text_22">
    <!-- $\Ex_{t}[\cLvl_{t+1}/\cLvl_{t}]$ -->
    <g transform="translate(648.245455 292.25678)scale(0.22 -0.22)">
     <defs>
      <path d="M 2995 753 
C 2995 829 2925 829 2861 829 
C 2758 829 2752 823 2720 747 
C 2675 625 2502 197 1914 197 
C 1011 197 1011 1166 1011 1453 
C 1011 1829 1018 2664 1856 2664 
C 1901 2664 2278 2664 2278 2632 
C 2278 2624 2272 2618 2259 2612 
C 2240 2593 2157 2496 2157 2334 
C 2157 2064 2374 1954 2534 1954 
C 2669 1954 2912 2039 2912 2346 
C 2912 2880 2176 2880 1830 2880 
C 691 2880 243 2145 243 1414 
C 243 552 851 -32 1792 -32 
C 2797 -32 2995 708 2995 753 
z
" id="CMBX12-63" transform="scale(0.015625)"/>
     </defs>
     <use transform="scale(0.996264)" xlink:href="#MSBM10-45"/>
     <use transform="translate(66.417819 -14.943915)scale(0.697382)" xlink:href="#CMMI12-74"/>
     <use transform="translate(91.57426 0)scale(0.996264)" xlink:href="#CMR17-5b"/>
     <use transform="translate(116.445319 0)scale(0.996264)" xlink:href="#CMBX12-63"/>
     <use transform="translate(166.258519 -14.943915)scale(0.697382)" xlink:href="#CMMI12-74"/>
     <use transform="translate(190.916829 -14.943915)scale(0.697382)" xlink:href="#CMR17-2b"/>
     <use transform="translate(241.11696 -14.943915)scale(0.697382)" xlink:href="#CMR17-31"/>
     <use transform="translate(273.598274 0)scale(0.996264)" xlink:href="#CMMI12-3d"/>
     <use transform="translate(322.373193 0)scale(0.996264)" xlink:href="#CMBX12-63"/>
     <use transform="translate(372.186393 -14.943915)scale(0.697382)" xlink:href="#CMMI12-74"/>
     <use transform="translate(397.342835 0)scale(0.996264)" xlink:href="#CMR17-5d"/>
    </g>
   </g>
   <g id="text_23">
    <!-- $\pmb{\text{\TH}} = (\Rfree\DiscFac)^{1/\CRRA}$ -->
    <g transform="translate(648.245455 368.018887)scale(0.22 -0.22)">
     <defs>
      <path d="M 474 4365 
L 474 4224 
L 582 4224 
C 749 4224 883 4205 883 3955 
L 883 410 
C 883 160 774 141 474 141 
L 474 0 
L 1594 0 
L 1594 141 
L 1466 141 
C 1318 141 1184 160 1184 365 
L 1184 1140 
L 2176 1140 
C 2797 1197 3251 1723 3251 2327 
C 3251 2872 2861 3411 2266 3501 
C 2163 3520 2061 3520 1958 3520 
L 1184 3520 
L 1184 3973 
C 1184 4148 1210 4224 1594 4224 
L 1594 4365 
L 474 4365 
z
M 1184 1280 
L 1184 3379 
L 1786 3379 
C 2093 3379 2394 3354 2624 3077 
C 2803 2873 2899 2596 2899 2327 
C 2899 1871 2586 1351 2003 1280 
L 1184 1280 
z
" id="SFRM3583-de" transform="scale(0.015625)"/>
      <path d="M 1958 -1561 
C 1958 -1555 1958 -1542 1939 -1523 
C 1645 -1224 858 -407 858 1581 
C 858 3569 1632 4379 1946 4697 
C 1946 4704 1958 4717 1958 4736 
C 1958 4755 1939 4768 1914 4768 
C 1843 4768 1299 4296 986 3594 
C 666 2887 576 2199 576 1588 
C 576 1128 621 351 1005 -471 
C 1312 -1135 1837 -1600 1914 -1600 
C 1946 -1600 1958 -1587 1958 -1561 
z
" id="CMR17-28" transform="scale(0.015625)"/>
      <path d="M 2522 2109 
L 2534 2115 
C 3533 2459 3539 3147 3539 3268 
C 3539 3873 2925 4453 2003 4453 
L 570 4453 
L 570 32 
L 1094 32 
L 1094 2048 
L 2035 2048 
L 3168 32 
L 3706 32 
L 2522 2109 
z
M 1094 2437 
L 1094 4096 
L 1933 4096 
C 2746 4096 3034 3637 3034 3267 
C 3034 2922 2778 2437 1933 2437 
L 1094 2437 
z
" id="CMSS17-52" transform="scale(0.015625)"/>
      <path d="M 3622 3701 
C 3622 4081 3296 4480 2714 4480 
C 1888 4480 1363 3477 1197 2816 
L 186 -1172 
C 173 -1223 211 -1236 243 -1236 
C 288 -1236 320 -1230 326 -1198 
L 774 586 
C 838 229 1190 -64 1568 -64 
C 2483 -64 3347 650 3347 1599 
C 3347 1841 3290 2083 3155 2287 
C 3078 2408 2982 2497 2880 2574 
C 3341 2815 3622 3200 3622 3701 
z
M 2509 2580 
C 2406 2542 2304 2529 2182 2529 
C 2093 2529 2010 2523 1894 2561 
C 1958 2606 2054 2618 2189 2618 
C 2304 2618 2419 2606 2509 2580 
z
M 3290 3758 
C 3290 3410 3117 2903 2701 2669 
C 2579 2718 2413 2752 2272 2752 
C 2138 2752 1754 2752 1754 2555 
C 1754 2389 2106 2389 2214 2389 
C 2381 2389 2528 2432 2682 2484 
C 2886 2318 2976 2101 2976 1783 
C 2976 1413 2874 1115 2752 841 
C 2541 369 2042 64 1600 64 
C 1133 64 890 432 890 864 
C 890 922 890 1005 915 1099 
L 1331 2771 
C 1542 3603 2080 4353 2701 4353 
C 3162 4353 3290 4036 3290 3758 
z
" id="CMMI12-c" transform="scale(0.015625)"/>
      <path d="M 1683 1581 
C 1683 2040 1638 2817 1254 3639 
C 947 4303 422 4768 346 4768 
C 326 4768 301 4761 301 4729 
C 301 4717 307 4710 314 4697 
C 621 4378 1402 3568 1402 1584 
C 1402 -407 627 -1217 314 -1537 
C 307 -1549 301 -1556 301 -1568 
C 301 -1600 326 -1600 346 -1600 
C 416 -1600 960 -1128 1274 -426 
C 1594 281 1683 969 1683 1581 
z
" id="CMR17-29" transform="scale(0.015625)"/>
      <path d="M 198 -1107 
C 192 -1139 179 -1177 179 -1216 
C 179 -1312 256 -1376 352 -1376 
C 448 -1376 538 -1312 576 -1222 
C 602 -1164 781 -397 986 390 
C 1114 70 1350 -64 1600 -64 
C 2323 -64 3142 830 3142 1795 
C 3142 2478 2726 2816 2285 2816 
C 1722 2816 1037 2235 826 1385 
L 198 -1107 
z
M 1594 64 
C 1158 64 1050 569 1050 645 
C 1050 684 1210 1295 1229 1391 
C 1555 2670 2182 2670 2278 2670 
C 2566 2670 2726 2410 2726 2036 
C 2726 1712 2554 1084 2445 819 
C 2253 381 1920 64 1594 64 
z
" id="CMMI12-1a" transform="scale(0.015625)"/>
     </defs>
     <use transform="scale(0.996264)" xlink:href="#SFRM3583-de"/>
     <use transform="translate(2.213881 2.767393)scale(0.996264)" xlink:href="#SFRM3583-de"/>
     <use transform="translate(4.427762 0)scale(0.996264)" xlink:href="#SFRM3583-de"/>
     <use transform="translate(87.811454 0)scale(0.996264)" xlink:href="#CMR17-3d"/>
     <use transform="translate(187.200251 0)scale(0.996264)" xlink:href="#CMR17-28"/>
     <use transform="translate(222.481019 0)scale(0.996264)" xlink:href="#CMSS17-52"/>
     <use transform="translate(282.897174 0)scale(0.996264)" xlink:href="#CMMI12-c"/>
     <use transform="translate(343.49119 0)scale(0.996264)" xlink:href="#CMR17-29"/>
     <use transform="translate(378.771957 36.153639)scale(0.697382)" xlink:href="#CMR17-31"/>
     <use transform="translate(410.755139 36.153639)scale(0.697382)" xlink:href="#CMMI12-3d"/>
     <use transform="translate(444.897431 36.153639)scale(0.697382)" xlink:href="#CMMI12-1a"/>
    </g>
   </g>
   <g id="text_24">
    <!-- $\check{\mNrm}_{\searrow}~$ -->
    <g transform="translate(318.294909 215.969128)scale(0.22 -0.22)">
     <defs>
      <path d="M 1466 3561 
L 749 4045 
L 685 3956 
L 1466 3306 
L 2246 3956 
L 2182 4045 
L 1466 3561 
z
" id="CMR17-14" transform="scale(0.015625)"/>
      <path d="M 5434 -815 
C 5325 -796 5178 -783 5062 -783 
C 4934 -783 4621 -796 4250 -930 
C 4205 -950 3731 -1149 3731 -1251 
C 3731 -1296 3834 -1398 3878 -1398 
C 3904 -1398 3923 -1391 3962 -1366 
C 4467 -1033 4909 -1033 5069 -1033 
C 5459 -1033 5747 -1135 5894 -1206 
C 5933 -1225 5952 -1231 5971 -1231 
C 5997 -1231 6035 -1218 6035 -1167 
C 6035 -1154 6035 -1142 6016 -1090 
C 5933 -918 5837 -642 5837 -265 
C 5837 4 5875 388 6170 842 
C 6195 887 6202 900 6202 926 
C 6202 970 6099 1073 6054 1073 
C 5965 1073 5786 676 5734 554 
C 5600 196 5587 -111 5587 -258 
C 5587 -463 5587 -470 5619 -630 
L 621 4362 
C 544 4439 531 4452 480 4452 
C 403 4452 352 4388 352 4324 
C 352 4273 365 4260 448 4177 
L 5434 -815 
z
" id="CMSY10-26" transform="scale(0.015625)"/>
     </defs>
     <use transform="translate(19.818381 0.006461)scale(0.996264)" xlink:href="#CMR17-14"/>
     <use transform="scale(0.996264)" xlink:href="#CMMI12-6d"/>
     <use transform="translate(85.327224 -14.943915)scale(0.697382)" xlink:href="#CMSY10-26"/>
    </g>
   </g>
   <g id="text_25">
    <!-- $\Ex_{t}[\mNrm_{t+1}/\mNrm_{t}] ^{\nearrow}$ -->
    <g transform="translate(156.214809 290.254813)scale(0.22 -0.22)">
     <defs>
      <path d="M 5619 3830 
C 5600 3721 5587 3574 5587 3458 
C 5587 3330 5600 3017 5734 2646 
C 5766 2569 5958 2127 6054 2127 
C 6099 2127 6202 2230 6202 2274 
C 6202 2300 6195 2313 6170 2358 
C 5856 2844 5837 3241 5837 3465 
C 5837 3855 5939 4143 6010 4290 
C 6029 4329 6035 4348 6035 4367 
C 6035 4418 5997 4431 5971 4431 
C 5958 4431 5946 4431 5894 4412 
C 5722 4329 5440 4233 5069 4233 
C 4883 4233 4454 4239 3962 4566 
C 3923 4591 3904 4598 3878 4598 
C 3834 4598 3731 4495 3731 4450 
C 3731 4361 4128 4182 4262 4130 
C 4634 3990 4947 3983 5062 3983 
C 5267 3983 5274 3983 5434 4015 
L 448 -977 
C 365 -1060 352 -1073 352 -1124 
C 352 -1188 410 -1252 480 -1252 
C 531 -1252 544 -1239 621 -1162 
L 5619 3830 
z
" id="CMSY10-25" transform="scale(0.015625)"/>
     </defs>
     <use transform="scale(0.996264)" xlink:href="#MSBM10-45"/>
     <use transform="translate(66.417819 -14.943915)scale(0.697382)" xlink:href="#CMMI12-74"/>
     <use transform="translate(91.57426 0)scale(0.996264)" xlink:href="#CMR17-5b"/>
     <use transform="translate(116.445319 0)scale(0.996264)" xlink:href="#CMMI12-6d"/>
     <use transform="translate(201.772543 -14.943915)scale(0.697382)" xlink:href="#CMMI12-74"/>
     <use transform="translate(226.430853 -14.943915)scale(0.697382)" xlink:href="#CMR17-2b"/>
     <use transform="translate(276.630984 -14.943915)scale(0.697382)" xlink:href="#CMR17-31"/>
     <use transform="translate(309.112298 0)scale(0.996264)" xlink:href="#CMMI12-3d"/>
     <use transform="translate(357.887217 0)scale(0.996264)" xlink:href="#CMMI12-6d"/>
     <use transform="translate(443.214441 -14.943915)scale(0.697382)" xlink:href="#CMMI12-74"/>
     <use transform="translate(468.370883 0)scale(0.996264)" xlink:href="#CMR17-5d"/>
     <use transform="translate(493.241941 36.153639)scale(0.697382)" xlink:href="#CMSY10-25"/>
    </g>
   </g>
   <g id="text_26">
    <!-- $\Ex_{t}[\mLvl_{t+1}/\mLvl_{t}]$ -->
    <g transform="translate(648.245455 436.389503)scale(0.22 -0.22)">
     <defs>
      <path d="M 5402 1924 
C 5402 2506 5152 2834 4435 2834 
C 3789 2834 3488 2407 3386 2206 
C 3283 2740 2848 2834 2438 2834 
C 1824 2834 1491 2445 1357 2143 
L 1350 2143 
L 1350 2816 
L 269 2816 
L 269 2517 
C 666 2517 710 2517 710 2270 
L 710 260 
L 269 260 
L 269 -13 
C 416 0 877 0 1056 0 
C 1235 0 1702 0 1850 -13 
L 1850 260 
L 1408 260 
L 1408 1607 
C 1408 2296 1926 2624 2330 2624 
C 2566 2624 2707 2485 2707 1993 
L 2707 260 
L 2266 260 
L 2266 -13 
C 2413 0 2874 0 3053 0 
C 3232 0 3699 0 3846 -13 
L 3846 260 
L 3405 260 
L 3405 1607 
C 3405 2296 3923 2624 4326 2624 
C 4563 2624 4704 2485 4704 1993 
L 4704 260 
L 4262 260 
L 4262 -13 
C 4410 0 4870 0 5050 0 
C 5229 0 5696 0 5843 -13 
L 5843 260 
L 5402 260 
L 5402 1924 
z
" id="CMBX12-6d" transform="scale(0.015625)"/>
     </defs>
     <use transform="scale(0.996264)" xlink:href="#MSBM10-45"/>
     <use transform="translate(66.417819 -14.943915)scale(0.697382)" xlink:href="#CMMI12-74"/>
     <use transform="translate(91.57426 0)scale(0.996264)" xlink:href="#CMR17-5b"/>
     <use transform="translate(116.445319 0)scale(0.996264)" xlink:href="#CMBX12-6d"/>
     <use transform="translate(209.84507 -14.943915)scale(0.697382)" xlink:href="#CMMI12-74"/>
     <use transform="translate(234.503379 -14.943915)scale(0.697382)" xlink:href="#CMR17-2b"/>
     <use transform="translate(284.703511 -14.943915)scale(0.697382)" xlink:href="#CMR17-31"/>
     <use transform="translate(317.184824 0)scale(0.996264)" xlink:href="#CMMI12-3d"/>
     <use transform="translate(365.959743 0)scale(0.996264)" xlink:href="#CMBX12-6d"/>
     <use transform="translate(459.359494 -14.943915)scale(0.697382)" xlink:href="#CMMI12-74"/>
     <use transform="translate(484.515936 0)scale(0.996264)" xlink:href="#CMR17-5d"/>
    </g>
   </g>
   <g id="legend_1">
    <g id="patch_7">
     <path d="M 536.930915 117.38261 
L 762.2 117.38261 
Q 766.6 117.38261 766.6 112.98261 
L 766.6 84.52 
Q 766.6 80.12 762.2 80.12 
L 536.930915 80.12 
Q 532.530915 80.12 532.530915 84.52 
L 532.530915 112.98261 
Q 532.530915 117.38261 536.930915 117.38261 
z
" style="fill:#ffffff;opacity:0.8;stroke:#cccccc;stroke-linejoin:miter;"/>
    </g>
    <g id="line2d_45">
     <path d="M 541.330915 96.62 
L 585.330915 96.62 
" style="fill:none;stroke:#1f77b4;stroke-dasharray:1.5,2.475;stroke-dashoffset:0;stroke-width:1.5;"/>
    </g>
    <g id="line2d_46"/>
    <g id="text_27">
     <!-- Individual Target -->
     <g transform="translate(602.930915 104.32)scale(0.22 -0.22)">
      <defs>
       <path d="M 448 4365 
L 448 4224 
L 582 4224 
C 736 4224 877 4198 877 3961 
L 877 556 
C 877 505 883 447 883 391 
C 883 160 717 141 544 141 
L 448 141 
L 448 0 
L 1619 0 
L 1619 141 
L 1517 141 
C 1338 141 1184 160 1184 391 
C 1184 447 1190 505 1190 556 
L 1190 3961 
C 1190 4211 1338 4224 1536 4224 
L 1619 4224 
L 1619 4365 
L 448 4365 
z
" id="SFRM3583-49" transform="scale(0.015625)"/>
       <path d="M 301 2746 
L 301 2605 
L 365 2605 
C 570 2605 678 2560 678 2275 
L 678 361 
C 678 154 525 141 301 141 
L 301 0 
L 1318 0 
L 1318 141 
L 1229 141 
C 1082 141 941 160 941 361 
L 941 1777 
C 979 2217 1203 2740 1709 2740 
C 2112 2740 2266 2417 2266 1951 
L 2266 361 
C 2266 154 2112 141 1888 141 
L 1888 0 
L 2906 0 
L 2906 141 
L 2803 141 
C 2656 141 2528 160 2528 386 
L 2528 1885 
C 2528 2299 2451 2816 1760 2816 
C 1414 2816 1178 2629 1024 2352 
C 986 2281 947 2204 934 2126 
L 928 2816 
L 301 2746 
z
" id="SFRM3583-6e" transform="scale(0.015625)"/>
       <path d="M 1882 4397 
L 1882 4256 
L 1952 4256 
C 2150 4256 2259 4198 2259 3955 
L 2253 2323 
C 2131 2617 1766 2816 1459 2816 
C 710 2816 269 2052 269 1373 
C 269 731 653 0 1338 0 
L 1395 0 
C 1741 0 2118 204 2246 507 
L 2253 0 
L 2893 0 
L 2893 160 
L 2816 160 
C 2605 160 2515 237 2515 461 
L 2515 4467 
L 1882 4397 
z
M 595 1245 
L 595 1341 
C 595 1783 659 2310 1056 2593 
C 1190 2689 1344 2740 1498 2740 
C 1862 2740 2259 2393 2259 2021 
C 2259 1951 2253 1874 2253 1804 
L 2253 770 
C 2253 424 1811 58 1440 58 
C 947 58 678 558 621 981 
C 608 1072 608 1155 595 1245 
z
" id="SFRM3583-64" transform="scale(0.015625)"/>
       <path d="M 326 2735 
L 326 2593 
L 358 2593 
C 563 2593 678 2561 678 2251 
L 678 360 
C 678 154 531 141 307 141 
L 307 0 
L 1274 0 
L 1274 141 
L 1190 141 
C 1056 141 934 154 934 373 
L 934 2805 
L 326 2735 
z
M 698 4160 
C 595 4160 531 4045 531 3962 
C 531 3866 608 3751 730 3751 
C 858 3751 934 3857 934 3952 
C 934 4046 858 4160 736 4160 
C 723 4160 710 4160 698 4160 
z
" id="SFRM3583-69" transform="scale(0.015625)"/>
       <path d="M 90 2752 
L 90 2612 
L 134 2612 
C 454 2612 461 2484 678 1948 
C 922 1341 1152 734 1402 128 
C 1421 77 1440 -32 1510 -32 
C 1594 -32 1734 415 1824 638 
C 2022 1136 2214 1634 2413 2133 
C 2502 2350 2624 2612 2931 2612 
L 2931 2752 
L 2189 2752 
L 2189 2612 
C 2304 2612 2394 2496 2394 2388 
C 2394 2273 2330 2145 2291 2049 
C 2144 1686 2003 1328 1862 964 
L 1709 580 
C 1670 492 1632 409 1606 319 
L 1600 319 
C 1549 517 1453 722 1370 915 
L 928 2029 
C 870 2171 768 2369 768 2465 
L 768 2478 
C 768 2612 928 2612 1018 2612 
L 1018 2752 
L 710 2752 
L 90 2752 
z
" id="SFRM3583-76" transform="scale(0.015625)"/>
       <path d="M 301 2732 
L 301 2592 
L 358 2592 
C 570 2592 685 2560 685 2181 
C 685 2098 678 2015 678 1930 
L 678 904 
C 678 443 762 -32 1459 -32 
C 1856 -32 2170 248 2266 620 
L 2272 0 
L 2906 0 
L 2906 160 
L 2842 160 
C 2675 160 2528 179 2528 447 
L 2528 2803 
L 1888 2732 
L 1888 2592 
L 1958 2592 
C 2176 2592 2266 2521 2266 2258 
L 2266 1077 
C 2266 609 2042 45 1491 45 
C 1318 45 1133 102 1030 250 
C 947 366 941 526 941 673 
L 941 2803 
L 301 2732 
z
" id="SFRM3583-75" transform="scale(0.015625)"/>
       <path d="M 307 4365 
L 307 4224 
L 384 4224 
C 608 4224 678 4121 678 3911 
L 678 372 
C 678 180 595 141 307 141 
L 307 0 
L 1306 0 
L 1306 141 
L 1203 141 
C 1062 141 934 160 934 365 
L 934 4435 
L 307 4365 
z
" id="SFRM3583-6c" transform="scale(0.015625)"/>
       <path d="M 301 4365 
L 205 2974 
L 288 2974 
C 307 3340 320 3839 576 4045 
C 787 4224 1075 4224 1331 4224 
L 1715 4224 
C 1830 4224 1920 4192 1920 4025 
C 1920 3986 1914 3941 1914 3903 
L 1914 538 
C 1914 500 1920 448 1920 404 
C 1920 167 1722 141 1523 141 
L 1338 141 
L 1338 0 
L 2803 0 
L 2803 141 
L 2605 141 
C 2400 141 2221 167 2221 404 
C 2221 448 2227 500 2227 539 
L 2227 3903 
C 2227 3940 2221 3983 2221 4020 
C 2221 4180 2310 4211 2426 4211 
L 2810 4211 
C 3200 4211 3661 4211 3776 3631 
C 3821 3419 3840 3193 3853 2974 
L 3936 2974 
L 3840 4365 
L 301 4365 
z
" id="SFRM3583-54" transform="scale(0.015625)"/>
       <path d="M 659 1252 
L 659 1246 
C 531 1119 474 909 474 731 
C 474 503 570 358 749 218 
C 448 167 154 -130 154 -457 
C 154 -1004 896 -1248 1421 -1248 
C 1933 -1248 2701 -1055 2701 -419 
C 2701 -66 2464 204 2138 307 
C 1907 384 1658 384 1414 384 
L 1222 384 
C 1165 384 1107 384 1050 384 
C 742 384 582 580 582 848 
C 582 965 646 1200 710 1200 
L 717 1200 
C 755 1200 870 1106 947 1075 
C 1050 1031 1158 1012 1274 1012 
C 1805 1012 2144 1462 2144 1918 
C 2144 2125 2067 2375 1914 2525 
L 1914 2532 
C 2086 2679 2266 2804 2490 2804 
C 2534 2804 2579 2794 2624 2771 
C 2586 2744 2554 2704 2554 2651 
C 2554 2584 2611 2537 2669 2537 
C 2746 2537 2784 2592 2784 2654 
C 2784 2818 2630 2880 2502 2880 
C 2291 2880 2086 2781 1920 2634 
C 1907 2620 1882 2599 1862 2599 
C 1824 2599 1696 2706 1613 2749 
C 1504 2793 1389 2819 1274 2819 
C 742 2819 397 2356 397 1899 
C 397 1683 480 1398 659 1252 
z
M 358 -509 
L 358 -458 
C 358 -219 506 18 717 115 
C 826 167 941 167 1062 167 
L 1594 167 
C 1958 167 2502 39 2502 -460 
C 2502 -960 1850 -1172 1434 -1172 
C 1005 -1172 422 -972 358 -509 
z
M 710 1787 
L 710 1868 
C 710 2212 787 2737 1267 2737 
C 1683 2737 1830 2324 1830 1937 
C 1830 1669 1805 1319 1523 1163 
C 1446 1113 1357 1088 1274 1088 
C 896 1088 749 1450 710 1787 
z
" id="SFRM3583-67" transform="scale(0.015625)"/>
       <path d="M 563 1524 
L 2246 1524 
C 2259 1524 2285 1517 2310 1517 
C 2355 1517 2374 1543 2374 1581 
C 2374 2154 2099 2816 1382 2816 
C 614 2816 237 2031 237 1405 
C 237 778 589 70 1350 -26 
C 1376 -26 1402 -32 1427 -32 
C 1869 -32 2208 273 2355 686 
C 2362 705 2368 730 2368 749 
C 2368 768 2362 787 2336 787 
C 2272 787 2266 686 2246 628 
C 2118 324 1843 57 1485 57 
C 1216 57 960 210 813 425 
C 576 742 563 1149 563 1524 
z
M 570 1600 
C 582 2103 832 2740 1370 2740 
C 1818 2740 2010 2264 2061 1890 
C 2067 1793 2067 1697 2080 1600 
L 570 1600 
z
" id="SFRM3583-65" transform="scale(0.015625)"/>
      </defs>
      <use transform="scale(0.996264)" xlink:href="#SFRM3583-49"/>
      <use transform="translate(32.120788 0)scale(0.996264)" xlink:href="#SFRM3583-6e"/>
      <use transform="translate(81.659217 0)scale(0.996264)" xlink:href="#SFRM3583-64"/>
      <use transform="translate(131.197645 0)scale(0.996264)" xlink:href="#SFRM3583-69"/>
      <use transform="translate(155.935977 0)scale(0.996264)" xlink:href="#SFRM3583-76"/>
      <use transform="translate(202.994417 0)scale(0.996264)" xlink:href="#SFRM3583-69"/>
      <use transform="translate(227.732748 0)scale(0.996264)" xlink:href="#SFRM3583-64"/>
      <use transform="translate(277.271177 0)scale(0.996264)" xlink:href="#SFRM3583-75"/>
      <use transform="translate(326.809605 0)scale(0.996264)" xlink:href="#SFRM3583-61"/>
      <use transform="translate(371.388072 0)scale(0.996264)" xlink:href="#SFRM3583-6c"/>
      <use transform="translate(425.824697 0)scale(0.996264)" xlink:href="#SFRM3583-54"/>
      <use transform="translate(482.803242 0)scale(0.996264)" xlink:href="#SFRM3583-61"/>
      <use transform="translate(527.381709 0)scale(0.996264)" xlink:href="#SFRM3583-72"/>
      <use transform="translate(562.040055 0)scale(0.996264)" xlink:href="#SFRM3583-67"/>
      <use transform="translate(606.618522 0)scale(0.996264)" xlink:href="#SFRM3583-65"/>
      <use transform="translate(646.23692 0)scale(0.996264)" xlink:href="#SFRM3583-74"/>
     </g>
    </g>
   </g>
  </g>
 </g>
 <defs>
  <clipPath id="p141ddc8b45">
   <rect height="443.52" width="669.6" x="108" y="69.12"/>
  </clipPath>
 </defs>
</svg>
